<?xml version="1.0" encoding="UTF-8"?>
<svg version="1.1" xmlns="http://www.w3.org/2000/svg" width="500" height="500">
<path d="M0 0 C0 0.66 0 1.32 0 2 C1.06154297 2.33837891 1.06154297 2.33837891 2.14453125 2.68359375 C5.64127248 4.29563451 7.8977636 6.4173884 10.6875 9.0625 C14.06920684 12.41958906 14.06920684 12.41958906 18 15 C18 15.66 18 16.32 18 17 C18.66 17 19.32 17 20 17 C20 17.66 20 18.32 20 19 C20.66 19 21.32 19 22 19 C22 19.66 22 20.32 22 21 C22.55042969 21.1959375 23.10085938 21.391875 23.66796875 21.59375 C26.98172378 23.59199424 29.00995428 26.4612798 31.3125 29.5 C31.7974292 30.1293042 32.2823584 30.7586084 32.78198242 31.40698242 C36.67891561 36.49639142 40.42369062 41.67993705 44 47 C44.45358887 47.64694824 44.90717773 48.29389648 45.37451172 48.96044922 C49.0285346 54.26057415 51.92336058 59.60678415 54.5 65.5 C54.88381836 66.37164795 55.26763672 67.2432959 55.66308594 68.14135742 C65.91437605 91.74811079 71.22923094 115.3403017 71.1875 141.125 C71.18689575 141.81419525 71.1862915 142.5033905 71.18566895 143.21347046 C71.14157689 161.72917629 69.60764577 180.89307762 62 198 C61.57441472 199.47088246 61.17551926 200.94993989 60.8125 202.4375 C58.60589084 210.07306819 54.68008687 216.99379175 51 224 C50.56558594 224.84820312 50.13117188 225.69640625 49.68359375 226.5703125 C44.28996242 236.75619466 37.24561809 245.96376262 29.84765625 254.7578125 C27.88644847 257.06085187 27.88644847 257.06085187 26 260 C25.34 260 24.68 260 24 260 C24 260.66 24 261.32 24 262 C23.34 262 22.68 262 22 262 C22 262.66 22 263.32 22 264 C21.34 264 20.68 264 20 264 C20 264.66 20 265.32 20 266 C19.34 266 18.68 266 18 266 C18 266.66 18 267.32 18 268 C7.50226713 277.93028785 -5.33504671 287.07820658 -18 294 C-18.77214844 294.42667969 -19.54429687 294.85335938 -20.33984375 295.29296875 C-26.20001951 298.37977122 -32.25013815 300.63572883 -38.5078125 302.7890625 C-40.95676736 303.63825267 -43.34046996 304.53093214 -45.74609375 305.484375 C-50.69552575 307.35111991 -55.78131335 308.48153355 -60.9375 309.625 C-61.87529297 309.8415625 -62.81308594 310.058125 -63.77929688 310.28125 C-85.01261769 315.0620672 -108.78637185 314.83835866 -130 310 C-130.81033691 309.81775879 -131.62067383 309.63551758 -132.45556641 309.44775391 C-141.18057009 307.43429152 -149.53625916 305.17926709 -157.58984375 301.18359375 C-160.06033274 299.97037144 -162.55314184 298.97769875 -165.125 298 C-178.53078832 292.67125159 -190.88442392 283.84518298 -201.94921875 274.69140625 C-203.99457764 272.96070689 -203.99457764 272.96070689 -206.26953125 271.40234375 C-207.12611328 270.70818359 -207.12611328 270.70818359 -208 270 C-208 269.34 -208 268.68 -208 268 C-208.66 268 -209.32 268 -210 268 C-210 267.34 -210 266.68 -210 266 C-210.66 266 -211.32 266 -212 266 C-212 265.34 -212 264.68 -212 264 C-212.66 264 -213.32 264 -214 264 C-214 263.34 -214 262.68 -214 262 C-214.55429688 261.78730469 -215.10859375 261.57460938 -215.6796875 261.35546875 C-218.79167766 259.53752163 -220.85390574 257.05237401 -223.125 254.3125 C-223.60509521 253.73580566 -224.08519043 253.15911133 -224.57983398 252.56494141 C-237.60105546 236.6332449 -247.66047549 218.56869756 -254 199 C-254.5121932 197.70488291 -255.03180055 196.41264445 -255.5625 195.125 C-261.3302313 179.82084933 -263.27727746 163.21718859 -264 147 C-264.04253906 146.0615625 -264.08507812 145.123125 -264.12890625 144.15625 C-265.15769337 96.42052773 -245.62931123 52.18054078 -213 18 C-212.44054687 17.39285156 -211.88109375 16.78570312 -211.3046875 16.16015625 C-210 15 -210 15 -208 15 C-207.78730469 14.43539062 -207.57460937 13.87078125 -207.35546875 13.2890625 C-204.21731237 7.98946699 -197.94751784 4.58385416 -193 1 C-192.43619629 0.58411621 -191.87239258 0.16823242 -191.29150391 -0.26025391 C-136.9274076 -40.0407899 -54.2553355 -41.73487346 0 0 Z M-131.25 -17.8125 C-132.05937012 -17.59182861 -132.86874023 -17.37115723 -133.70263672 -17.14379883 C-152.44670767 -11.89142008 -170.14821888 -4.1634919 -186.12109375 6.99609375 C-189 9 -189 9 -191 10 C-191 10.66 -191 11.32 -191 12 C-191.66 12 -192.32 12 -193 12 C-193 12.66 -193 13.32 -193 14 C-194.65 14.66 -196.3 15.32 -198 16 C-198 16.66 -198 17.32 -198 18 C-198.556875 18.226875 -199.11375 18.45375 -199.6875 18.6875 C-202.00275051 20.0015611 -203.6386498 21.4851163 -205.46484375 23.40625 C-206.61586715 24.60120559 -207.80178538 25.76271202 -209.00390625 26.90625 C-215.11061001 32.76868561 -220.06633635 39.15429401 -225 46 C-225.58007812 46.71542969 -226.16015625 47.43085938 -226.7578125 48.16796875 C-228.28059964 50.04493174 -228.28059964 50.04493174 -228 53 C-228.66 53 -229.32 53 -230 53 C-249.93003986 88.11483214 -260.2740293 127.67460009 -253 168 C-252.79375 169.21558594 -252.5875 170.43117188 -252.375 171.68359375 C-248.00808313 195.52795236 -238.4474973 220.59560057 -223.09375 239.6171875 C-222 241 -222 241 -221 243 C-220.34 243 -219.68 243 -219 243 C-218.71125 243.598125 -218.4225 244.19625 -218.125 244.8125 C-216.95257974 247.19327792 -216.95257974 247.19327792 -215 250 C-214.34 250 -213.68 250 -213 250 C-212.7628125 250.56203125 -212.525625 251.1240625 -212.28125 251.703125 C-210.71052303 254.51894042 -208.78528536 256.47955416 -206.5 258.75 C-205.7059375 259.54921875 -204.911875 260.3484375 -204.09375 261.171875 C-202.21216538 263.21923609 -202.21216538 263.21923609 -200 263 C-200 263.66 -200 264.32 -200 265 C-196.94441577 268.02517909 -196.94441577 268.02517909 -193 269 C-193 269.66 -193 270.32 -193 271 C-190.57735788 273.10841866 -187.8442911 274.82486983 -185.1875 276.625 C-184.08051758 277.3984375 -184.08051758 277.3984375 -182.95117188 278.1875 C-182.23896484 278.67476563 -181.52675781 279.16203125 -180.79296875 279.6640625 C-180.1383667 280.11217285 -179.48376465 280.5602832 -178.80932617 281.02197266 C-176.90293887 282.237761 -176.90293887 282.237761 -174 282 C-174 282.66 -174 283.32 -174 284 C-161.09279819 290.22946387 -148.37976825 295.95127446 -134.5 299.6875 C-133.37972412 299.99143677 -133.37972412 299.99143677 -132.23681641 300.30151367 C-120.47650994 303.3359006 -108.93970005 304.36365692 -96.8125 304.3125 C-96.13501709 304.31100952 -95.45753418 304.30951904 -94.75952148 304.3079834 C-83.89150182 304.2651254 -73.58136291 303.49793066 -63 301 C-61.71738281 300.70996094 -60.43476563 300.41992188 -59.11328125 300.12109375 C-42.14864536 295.95403519 -27.25821655 288.258529 -12 280 C-12 279.34 -12 278.68 -12 278 C-11.11248047 277.82670166 -11.11248047 277.82670166 -10.20703125 277.64990234 C-7.8597812 276.95870991 -6.57825341 276.12962067 -4.6875 274.6015625 C-4.08679688 274.12203125 -3.48609375 273.6425 -2.8671875 273.1484375 C-1.94292969 272.39433594 -1.94292969 272.39433594 -1 271.625 C0.22893794 270.63773605 1.4580987 269.65074938 2.6875 268.6640625 C3.25984375 268.1990332 3.8321875 267.73400391 4.421875 267.25488281 C5.72676084 266.21727248 7.07707136 265.23707445 8.4375 264.2734375 C8.953125 263.85320312 9.46875 263.43296875 10 263 C10 262.34 10 261.68 10 261 C10.66 261 11.32 261 12 261 C12 260.34 12 259.68 12 259 C12.639375 258.731875 13.27875 258.46375 13.9375 258.1875 C16.33131686 257.11332248 16.33131686 257.11332248 17 254 C17.66 254 18.32 254 19 254 C19 253.34 19 252.68 19 252 C19.66 252 20.32 252 21 252 C22.76365461 250.04038377 24.38939802 248.08105273 26 246 C26.48694336 245.37351562 26.97388672 244.74703125 27.47558594 244.1015625 C50.06325031 214.51099118 62.72959084 178.85007071 62.5 141.5625 C62.49823761 140.787854 62.49647522 140.01320801 62.49465942 139.21508789 C62.31963475 104.4096731 51.14288908 73.71048193 32 45 C31.5570459 44.33371582 31.1140918 43.66743164 30.65771484 42.98095703 C29.49323696 41.28178298 28.25238193 39.63546346 27 38 C26.34 38 25.68 38 25 38 C24.71125 37.401875 24.4225 36.80375 24.125 36.1875 C22.95257974 33.80672208 22.95257974 33.80672208 21 31 C20.34 31 19.68 31 19 31 C18.73574219 30.40960938 18.47148437 29.81921875 18.19921875 29.2109375 C14.98305197 23.28145739 8.44096914 17.91922052 3 14 C2.34 14 1.68 14 1 14 C1 13.34 1 12.68 1 12 C-1.40235193 10.15528309 -3.80244292 8.43721637 -6.3125 6.75 C-7.41464844 6.00411621 -7.41464844 6.00411621 -8.5390625 5.24316406 C-35.27026649 -12.6517619 -64.55129356 -21.23506719 -96.5625 -21.125 C-97.69107422 -21.12886719 -98.81964844 -21.13273437 -99.98242188 -21.13671875 C-110.64387818 -21.12445716 -120.94236485 -20.68367334 -131.25 -17.8125 Z " fill="#8D8D8C" transform="translate(346,104)"/>
<path d="M0 0 C1.4765625 1.48046875 1.4765625 1.48046875 1.4765625 3.48046875 C2.06824219 3.74085938 2.65992188 4.00125 3.26953125 4.26953125 C14.36107085 10.35515475 20.01300905 25.45418659 23.4765625 36.953125 C27.71969551 51.92011369 27.42463903 65.63623916 22.4765625 80.48046875 C19.4765625 79.48046875 19.4765625 79.48046875 17.76953125 77.2734375 C16.25812725 74.00862222 16.32178807 72.32820658 16.7890625 68.79296875 C18.86759014 49.87836724 15.49520525 31.60385937 3.6640625 16.29296875 C-0.04115404 11.8591984 -3.96160356 8.0217777 -8.5234375 4.48046875 C-9.18730469 3.95710938 -9.85117187 3.43375 -10.53515625 2.89453125 C-25.01755273 -7.65272238 -43.70133817 -9.61285587 -61.03125 -6.98828125 C-63.61735201 -6.31044255 -66.04255974 -5.51188235 -68.5234375 -4.51953125 C-69.27109375 -4.24109375 -70.01875 -3.96265625 -70.7890625 -3.67578125 C-85.67405724 2.36148935 -95.46749177 11.83468312 -103.5234375 25.48046875 C-103.925625 26.10953125 -104.3278125 26.73859375 -104.7421875 27.38671875 C-113.21787869 40.99919249 -112.93736953 59.1285144 -110.2734375 74.390625 C-107.54119835 85.64688107 -100.93601645 96.57774307 -92.5234375 104.48046875 C-92.5234375 105.14046875 -92.5234375 105.80046875 -92.5234375 106.48046875 C-91.9253125 106.76921875 -91.3271875 107.05796875 -90.7109375 107.35546875 C-88.5234375 108.48046875 -88.5234375 108.48046875 -85.5234375 110.48046875 C-85.5234375 111.14046875 -85.5234375 111.80046875 -85.5234375 112.48046875 C-84.4715625 112.88458984 -84.4715625 112.88458984 -83.3984375 113.296875 C-80.36703385 114.54485775 -77.46551884 115.97267129 -74.5234375 117.41796875 C-65.55543391 121.58204743 -56.32398702 123.51963056 -46.5234375 124.48046875 C-46.5234375 126.79046875 -46.5234375 129.10046875 -46.5234375 131.48046875 C-63.62687102 132.22529569 -76.01405198 127.05419655 -90.5234375 118.48046875 C-95.38006491 122.21535929 -95.38006491 122.21535929 -97.8828125 127.515625 C-97.77550646 129.50461916 -97.64965235 131.4925849 -97.5234375 133.48046875 C-99.0234375 136.98046875 -99.0234375 136.98046875 -100.5234375 139.48046875 C-101.1834375 139.48046875 -101.8434375 139.48046875 -102.5234375 139.48046875 C-102.5234375 140.14046875 -102.5234375 140.80046875 -102.5234375 141.48046875 C-104.16796875 143.06640625 -104.16796875 143.06640625 -106.3359375 144.85546875 C-108.58594607 146.71613157 -110.42694035 148.34919578 -112.16015625 150.70703125 C-112.83498047 151.58488281 -112.83498047 151.58488281 -113.5234375 152.48046875 C-114.1834375 152.48046875 -114.8434375 152.48046875 -115.5234375 152.48046875 C-115.5234375 153.14046875 -115.5234375 153.80046875 -115.5234375 154.48046875 C-116.1834375 154.48046875 -116.8434375 154.48046875 -117.5234375 154.48046875 C-117.8534375 155.47046875 -118.1834375 156.46046875 -118.5234375 157.48046875 C-119.1834375 157.48046875 -119.8434375 157.48046875 -120.5234375 157.48046875 C-120.5234375 158.14046875 -120.5234375 158.80046875 -120.5234375 159.48046875 C-122.14318309 161.19277123 -123.8193321 162.85210137 -125.5234375 164.48046875 C-126.4103125 165.40859375 -127.2971875 166.33671875 -128.2109375 167.29296875 C-130.5234375 169.48046875 -130.5234375 169.48046875 -132.5234375 169.48046875 C-132.8946875 170.40859375 -132.8946875 170.40859375 -133.2734375 171.35546875 C-134.76084119 173.88405502 -135.96021759 174.19885879 -138.5234375 175.48046875 C-139.20611888 176.80567378 -139.8741416 178.13859057 -140.5234375 179.48046875 C-141.5134375 179.81046875 -142.5034375 180.14046875 -143.5234375 180.48046875 C-143.5234375 181.14046875 -143.5234375 181.80046875 -143.5234375 182.48046875 C-144.1834375 182.48046875 -144.8434375 182.48046875 -145.5234375 182.48046875 C-145.5234375 183.14046875 -145.5234375 183.80046875 -145.5234375 184.48046875 C-150.68074185 186.72852449 -155.17214415 187.18562663 -160.5234375 185.48046875 C-165.99193643 181.91320421 -171.58336057 176.3606226 -174.5234375 170.48046875 C-175.28978769 163.6084433 -174.64957902 159.05633567 -170.5234375 153.48046875 C-168.0859375 151.35546875 -168.0859375 151.35546875 -165.5234375 149.48046875 C-163.84216461 147.82853745 -162.17835924 146.15879815 -160.5234375 144.48046875 C-159.42574135 143.39195485 -158.32671985 142.30477631 -157.2265625 141.21875 C-156.07548969 140.07685431 -154.92444844 138.9349268 -153.7734375 137.79296875 C-152.88978516 136.92188477 -152.88978516 136.92188477 -151.98828125 136.03320312 C-148.87436986 133.04891559 -148.87436986 133.04891559 -146.5234375 129.48046875 C-145.8634375 129.48046875 -145.2034375 129.48046875 -144.5234375 129.48046875 C-144.5234375 128.82046875 -144.5234375 128.16046875 -144.5234375 127.48046875 C-143.8221875 126.92359375 -143.1209375 126.36671875 -142.3984375 125.79296875 C-139.41569343 123.39380505 -137.22749217 120.85020495 -134.85546875 117.87109375 C-134.41589844 117.4121875 -133.97632813 116.95328125 -133.5234375 116.48046875 C-132.8634375 116.48046875 -132.2034375 116.48046875 -131.5234375 116.48046875 C-131.5234375 115.82046875 -131.5234375 115.16046875 -131.5234375 114.48046875 C-130.8634375 114.48046875 -130.2034375 114.48046875 -129.5234375 114.48046875 C-129.5234375 113.82046875 -129.5234375 113.16046875 -129.5234375 112.48046875 C-128.8634375 112.48046875 -128.2034375 112.48046875 -127.5234375 112.48046875 C-127.5234375 111.82046875 -127.5234375 111.16046875 -127.5234375 110.48046875 C-124.17403869 108.45487994 -121.65381199 108.26307888 -117.7734375 108.35546875 C-116.78859375 108.37351562 -115.80375 108.3915625 -114.7890625 108.41015625 C-114.04140625 108.43335938 -113.29375 108.4565625 -112.5234375 108.48046875 C-112.5234375 107.82046875 -112.5234375 107.16046875 -112.5234375 106.48046875 C-111.8634375 106.48046875 -111.2034375 106.48046875 -110.5234375 106.48046875 C-110.0284375 104.99546875 -110.0284375 104.99546875 -109.5234375 103.48046875 C-108.8634375 103.48046875 -108.2034375 103.48046875 -107.5234375 103.48046875 C-108.08738669 99.6279484 -109.18165332 97.1412142 -111.3359375 93.91796875 C-114.77797103 88.3628403 -116.77409093 82.75456749 -118.5234375 76.48046875 C-118.7503125 75.70445312 -118.9771875 74.9284375 -119.2109375 74.12890625 C-124.01116224 54.72799791 -119.30822928 35.22883066 -109.59667969 18.24023438 C-106.98638761 13.96021042 -103.9036555 10.16797929 -100.5234375 6.48046875 C-99.94078125 5.84109375 -99.358125 5.20171875 -98.7578125 4.54296875 C-97.40785739 3.12748184 -95.9738902 1.7927831 -94.5234375 0.48046875 C-93.8634375 0.48046875 -93.2034375 0.48046875 -92.5234375 0.48046875 C-92.5234375 -0.17953125 -92.5234375 -0.83953125 -92.5234375 -1.51953125 C-65.4097419 -23.3908699 -26.53684085 -21.08472628 0 0 Z M-102.5234375 106.48046875 C-104.8334375 108.79046875 -107.1434375 111.10046875 -109.5234375 113.48046875 C-108.19011655 117.48043161 -106.0276548 118.31829212 -102.5234375 120.48046875 C-99.01399713 117.89456532 -97.5276392 116.48887215 -95.5234375 112.48046875 C-97.8334375 110.50046875 -100.1434375 108.52046875 -102.5234375 106.48046875 Z M-123.4140625 116.90234375 C-125.23982364 118.69841771 -126.96119279 120.45000084 -128.5234375 122.48046875 C-128.5234375 123.14046875 -128.5234375 123.80046875 -128.5234375 124.48046875 C-129.08546875 124.71765625 -129.6475 124.95484375 -130.2265625 125.19921875 C-133.04237792 126.76994572 -135.00299166 128.69518339 -137.2734375 130.98046875 C-138.07265625 131.77453125 -138.871875 132.56859375 -139.6953125 133.38671875 C-141.74267359 135.26830337 -141.74267359 135.26830337 -141.5234375 137.48046875 C-142.1834375 137.48046875 -142.8434375 137.48046875 -143.5234375 137.48046875 C-143.5234375 138.14046875 -143.5234375 138.80046875 -143.5234375 139.48046875 C-144.1834375 139.48046875 -144.8434375 139.48046875 -145.5234375 139.48046875 C-145.5234375 140.14046875 -145.5234375 140.80046875 -145.5234375 141.48046875 C-146.1834375 141.48046875 -146.8434375 141.48046875 -147.5234375 141.48046875 C-147.5234375 142.14046875 -147.5234375 142.80046875 -147.5234375 143.48046875 C-148.1215625 143.74859375 -148.7196875 144.01671875 -149.3359375 144.29296875 C-151.52191604 145.47964281 -152.93676344 146.57645988 -154.5234375 148.48046875 C-154.5234375 149.14046875 -154.5234375 149.80046875 -154.5234375 150.48046875 C-155.1834375 150.48046875 -155.8434375 150.48046875 -156.5234375 150.48046875 C-156.5234375 151.14046875 -156.5234375 151.80046875 -156.5234375 152.48046875 C-157.1834375 152.48046875 -157.8434375 152.48046875 -158.5234375 152.48046875 C-158.5234375 153.14046875 -158.5234375 153.80046875 -158.5234375 154.48046875 C-159.1834375 154.48046875 -159.8434375 154.48046875 -160.5234375 154.48046875 C-160.5234375 155.14046875 -160.5234375 155.80046875 -160.5234375 156.48046875 C-161.420625 156.82078125 -161.420625 156.82078125 -162.3359375 157.16796875 C-165.24595653 158.91398017 -166.2034768 160.35424604 -167.5234375 163.48046875 C-167.69977341 168.24153833 -166.5651531 170.88897627 -163.4609375 174.35546875 C-160.42636778 177.0803885 -157.81868442 178.82349649 -153.66149902 178.88302612 C-150.95087485 178.37266581 -149.85753689 177.37131668 -147.83789062 175.50830078 C-147.14066895 174.86910706 -146.44344727 174.22991333 -145.72509766 173.5713501 C-139.29325595 167.46313316 -132.97821451 161.24207608 -126.68457031 154.99169922 C-124.90145466 153.2252696 -123.11297392 151.46424032 -121.31933594 149.70849609 C-118.71899557 147.16266523 -116.13525774 144.60100613 -113.5546875 142.03515625 C-112.74858032 141.25171844 -111.94247314 140.46828064 -111.11193848 139.66110229 C-110.37697144 138.92328522 -109.64200439 138.18546814 -108.88476562 137.42529297 C-108.23382935 136.78244354 -107.58289307 136.13959412 -106.91223145 135.4772644 C-105.16158726 132.96020368 -105.17521712 131.48683602 -105.5234375 128.48046875 C-106.90096034 126.05665948 -108.54550608 124.50549377 -110.5234375 122.48046875 C-111.1834375 122.48046875 -111.8434375 122.48046875 -112.5234375 122.48046875 C-112.5234375 121.82046875 -112.5234375 121.16046875 -112.5234375 120.48046875 C-113.1834375 120.48046875 -113.8434375 120.48046875 -114.5234375 120.48046875 C-114.5234375 119.82046875 -114.5234375 119.16046875 -114.5234375 118.48046875 C-115.1834375 118.48046875 -115.8434375 118.48046875 -116.5234375 118.48046875 C-116.5234375 117.82046875 -116.5234375 117.16046875 -116.5234375 116.48046875 C-119.40130239 115.17234835 -120.84218987 114.96812549 -123.4140625 116.90234375 Z " fill="#8A8B89" transform="translate(332.5234375,174.51953125)"/>
<path d="M0 0 C2.24609375 1.30859375 2.24609375 1.30859375 5.24609375 3.55859375 C5.24609375 4.21859375 5.24609375 4.87859375 5.24609375 5.55859375 C6.13554687 5.96851563 6.13554687 5.96851563 7.04296875 6.38671875 C16.1719855 11.24257872 21.8266756 22.19826768 25.3828125 31.546875 C26.08998048 33.87535492 26.70851069 36.18611976 27.24609375 38.55859375 C27.41882813 39.18137207 27.5915625 39.80415039 27.76953125 40.44580078 C28.54058003 43.86416969 28.34862099 47.32314473 28.30859375 50.80859375 C28.30408203 51.55367187 28.29957031 52.29875 28.29492188 53.06640625 C28.28318621 54.89717015 28.26525225 56.72789248 28.24609375 58.55859375 C23.49609375 57.68359375 23.49609375 57.68359375 21.24609375 56.55859375 C20.72704071 53.61529298 20.30728621 50.70813952 19.93359375 47.74609375 C18.29433923 36.33730805 15.30519177 27.27758427 7.69921875 18.3984375 C6.24609375 16.55859375 6.24609375 16.55859375 5.24609375 13.55859375 C3.32942708 12.39192708 3.32942708 12.39192708 1.24609375 11.55859375 C0.58609375 11.22859375 -0.07390625 10.89859375 -0.75390625 10.55859375 C-0.75390625 9.89859375 -0.75390625 9.23859375 -0.75390625 8.55859375 C-1.51703125 8.33171875 -2.28015625 8.10484375 -3.06640625 7.87109375 C-6.24438267 6.7399496 -9.15240345 5.44443393 -12.19140625 3.99609375 C-16.47218749 2.03718982 -20.0031335 0.81309943 -24.75390625 0.55859375 C-25.56214844 0.50832031 -26.37039063 0.45804688 -27.203125 0.40625 C-37.63997698 0.03403702 -46.6751478 2.56878936 -55.79296875 7.5703125 C-57.75390625 8.55859375 -57.75390625 8.55859375 -59.75390625 8.55859375 C-59.75390625 9.21859375 -59.75390625 9.87859375 -59.75390625 10.55859375 C-60.57890625 11.03296875 -61.40390625 11.50734375 -62.25390625 11.99609375 C-67.40117569 15.25277844 -70.47006986 20.55900559 -73.75390625 25.55859375 C-74.18058594 26.19667969 -74.60726562 26.83476562 -75.046875 27.4921875 C-81.8472383 39.19089678 -81.8608249 54.91561357 -78.62890625 67.62109375 C-74.25172967 80.6257488 -65.91751474 91.19152664 -53.75390625 97.55859375 C-52.76970703 98.11353516 -52.76970703 98.11353516 -51.765625 98.6796875 C-42.86610458 102.9950855 -32.46514056 102.8992055 -22.75390625 103.55859375 C-23.30114308 106.9332209 -23.80880625 108.64094375 -25.75390625 111.55859375 C-38.87033028 113.73754367 -52.89446044 108.62159898 -63.75390625 101.55859375 C-75.68717402 92.93109646 -84.27440063 81.02298487 -87.75390625 66.55859375 C-87.934375 65.84832031 -88.11484375 65.13804687 -88.30078125 64.40625 C-91.19819131 46.19752646 -87.35383068 28.92050214 -76.56640625 13.93359375 C-75.0859375 11.95703125 -75.0859375 11.95703125 -73.75390625 10.55859375 C-73.09390625 10.55859375 -72.43390625 10.55859375 -71.75390625 10.55859375 C-71.75390625 9.89859375 -71.75390625 9.23859375 -71.75390625 8.55859375 C-64.54933118 2.05659249 -56.91140834 -2.24782359 -47.75390625 -5.44140625 C-46.8721875 -5.80363281 -45.99046875 -6.16585937 -45.08203125 -6.5390625 C-29.48123034 -10.76885711 -13.92314319 -7.28743239 0 0 Z " fill="#8C8C8B" transform="translate(315.75390625,180.44140625)"/>
<path d="M0 0 C5.48609906 3.5111034 8.37193334 8.08103571 11 14 C11 14.66 11 15.32 11 16 C11.66 16 12.32 16 13 16 C13.29132813 16.53367187 13.58265625 17.06734375 13.8828125 17.6171875 C16.74110716 22.81245264 19.73391472 27.89665366 22.86328125 32.93359375 C24 35 24 35 24 37 C24.66 37 25.32 37 26 37 C26.37511719 37.70125 26.75023437 38.4025 27.13671875 39.125 C29.56176465 43.62080297 31.99012772 48.07454229 34.75 52.375 C39.10688738 59.28980191 39.10688738 59.28980191 38.8125 64 C37.67120364 68.21401732 36.36823985 70.98286564 32.82176208 73.61927795 C29.37116698 75.30769554 26.93736286 75.38698716 23.10180664 75.40405273 C22.42796432 75.41091599 21.75412201 75.41777924 21.05986023 75.42485046 C18.84307494 75.44307952 16.62700006 75.43928679 14.41015625 75.43359375 C12.86225658 75.43815756 11.31435894 75.44346374 9.76646423 75.44947815 C6.52594764 75.45840165 3.28567759 75.45599508 0.04516602 75.44604492 C-4.09876834 75.43455799 -8.24185019 75.45476549 -12.38567257 75.48396206 C-15.5813992 75.50234665 -18.77692241 75.50202713 -21.97268867 75.49632454 C-23.5000484 75.49617159 -25.02742215 75.50219423 -26.55473137 75.51461601 C-28.69449534 75.52956755 -30.83269561 75.5188211 -32.97241211 75.50170898 C-34.1875499 75.50154282 -35.40268768 75.50137665 -36.65464783 75.50120544 C-41.20146846 74.81999428 -44.51821885 72.88590328 -47.375 69.25 C-49.47002098 61.70792448 -47.4891817 57.61406095 -43.8046875 51.07397461 C-40.72850922 45.83423425 -37.50415166 40.69306328 -34.25 35.5625 C-32.92024293 33.46066709 -31.59204939 31.35784394 -30.265625 29.25390625 C-29.68586914 28.33939697 -29.10611328 27.4248877 -28.50878906 26.48266602 C-27.21854184 24.35960389 -26.06715308 22.24134881 -25 20 C-24.34 20 -23.68 20 -23 20 C-22.91621094 19.47921875 -22.83242188 18.9584375 -22.74609375 18.421875 C-21.70826677 15.05301257 -19.90854286 12.22327257 -18.0625 9.25 C-17.70220703 8.64800781 -17.34191406 8.04601562 -16.97070312 7.42578125 C-16.03920867 5.91274606 -15.02538164 4.45105131 -14 3 C-13.34 3 -12.68 3 -12 3 C-12 2.34 -12 1.68 -12 1 C-7.65348994 -1.23911124 -4.7125701 -1.24015003 0 0 Z M-9 9 C-9 9.66 -9 10.32 -9 11 C-9.66 11 -10.32 11 -11 11 C-11.29390625 11.57363281 -11.5878125 12.14726562 -11.890625 12.73828125 C-15.66557998 19.88683105 -19.89423414 26.68200138 -24.23852539 33.49487305 C-28.44983862 40.10350588 -32.55423487 46.77177484 -36.61010742 53.47680664 C-39.89971372 58.89971372 -39.89971372 58.89971372 -41 60 C-41.41717279 62.41537838 -41.41717279 62.41537838 -41 65 C-38.73069056 67.2858579 -37.32887613 67.95655519 -34.11621094 68.38095093 C-33.00020508 68.38333771 -31.88419922 68.38572449 -30.734375 68.38818359 C-28.83220215 68.40236832 -28.83220215 68.40236832 -26.89160156 68.4168396 C-25.51106452 68.41146973 -24.13053034 68.40531674 -22.75 68.3984375 C-21.33040213 68.40045922 -19.91080526 68.40337147 -18.49121094 68.40713501 C-15.51877943 68.41155382 -12.54661873 68.4051419 -9.57421875 68.39111328 C-5.76758264 68.37402127 -1.9615811 68.38386488 1.84503174 68.40183067 C4.77560186 68.41268071 7.70602199 68.40921665 10.63659668 68.4014473 C12.03999914 68.39944865 13.4434153 68.40189282 14.84680176 68.40888596 C16.80932346 68.41651956 18.77189302 68.40281805 20.734375 68.38818359 C21.85038086 68.38579681 22.96638672 68.38341003 24.11621094 68.38095093 C27.32669424 67.95684342 28.72281552 67.27194634 31 65 C31.55472439 61.39429145 30.83935859 59.10391762 29 56 C28.34 56 27.68 56 27 56 C26.64615234 54.74703125 26.64615234 54.74703125 26.28515625 53.46875 C24.78692244 49.42488489 22.76715819 46.10785426 20.4375 42.5 C19.99929932 41.80946533 19.56109863 41.11893066 19.10961914 40.4074707 C16.88450841 36.90858497 14.63120692 33.42810578 12.375 29.94921875 C11.96451416 29.315 11.55402832 28.68078125 11.13110352 28.02734375 C10.3515128 26.82566741 9.5682983 25.62633212 8.78100586 24.4296875 C7.16873999 21.95461757 5.93984489 19.81953467 5 17 C4.34 17 3.68 17 3 17 C2.7525 16.0925 2.505 15.185 2.25 14.25 C0.94586155 10.85924003 -0.16862142 9.23078312 -3 7 C-6.18490007 6.7226499 -6.18490007 6.7226499 -9 9 Z " fill="#848583" transform="translate(338,241)"/>
<path d="M0 0 C1.32 0.33 2.64 0.66 4 1 C3.72117305 6.43712561 1.45811102 9.55529345 -1.72265625 13.75390625 C-3.24715244 16.43459528 -3.47992933 17.96381549 -3 21 C0.5280947 23.35206313 1.99011228 23.25286015 6.16796875 23.25878906 C8.07509644 23.26824554 8.07509644 23.26824554 10.02075195 23.27789307 C11.40966938 23.27431328 12.79858554 23.27021131 14.1875 23.265625 C15.6109219 23.26697226 17.03434335 23.2689133 18.45776367 23.27142334 C21.44031151 23.27437175 24.42273953 23.27008612 27.40527344 23.26074219 C31.22872964 23.24934771 35.05190505 23.25590871 38.87535095 23.26788712 C41.81443396 23.27511339 44.75345039 23.27281427 47.6925354 23.26763153 C49.10234612 23.26629716 50.51216289 23.26793535 51.92196655 23.27259064 C53.89198695 23.27766816 55.86202853 23.26855731 57.83203125 23.25878906 C58.95327393 23.25719788 60.0745166 23.25560669 61.22973633 23.25396729 C64.21263833 23.20232447 64.21263833 23.20232447 67 21 C67.99 21 68.98 21 70 21 C72.125 25.625 72.125 25.625 71 29 C67.60009643 31.42645803 64.29040775 31.26499086 60.21533203 31.29052734 C59.54163574 31.29724457 58.86793945 31.30396179 58.17382812 31.31088257 C55.95174741 31.32984473 53.72996904 31.33378583 51.5078125 31.3359375 C49.95848467 31.3423668 48.40915806 31.34909526 46.85983276 31.35610962 C43.61339504 31.36807799 40.36706369 31.37179092 37.12060547 31.37060547 C32.96883447 31.37040233 28.81774837 31.39770057 24.6661396 31.43214989 C21.46614474 31.45443209 18.26631434 31.45844261 15.06624985 31.45738602 C13.53608719 31.45974014 12.00591988 31.46855312 10.47583389 31.48405075 C8.33122618 31.50373846 6.18809054 31.49786362 4.04345703 31.48583984 C2.21622604 31.4901149 2.21622604 31.4901149 0.3520813 31.49447632 C-4.20210239 30.822674 -7.514818 28.89023164 -10.375 25.25 C-11.96385581 19.53011909 -11.52729739 15.43201892 -8.8125 10.25 C-6.67460976 6.71121301 -4.42241832 4.37667939 -1 2 C-0.67 1.34 -0.34 0.68 0 0 Z " fill="#919290" transform="translate(301,285)"/>
<path d="M0 0 C-0.56450139 4.72216393 -1.50049595 8.94520216 -3.07421875 13.4296875 C-3.4916333 14.63004639 -3.90904785 15.83040527 -4.33911133 17.06713867 C-4.78802675 18.33661951 -5.23749937 19.60590344 -5.6875 20.875 C-6.14574896 22.1760746 -6.6036738 23.4772634 -7.0612793 24.77856445 C-7.74287969 26.71668509 -8.42496565 28.65461522 -9.10987854 30.59156799 C-10.40004835 34.24963898 -11.63838552 37.91890347 -12.8203125 41.61328125 C-13.07852783 42.40299316 -13.33674316 43.19270508 -13.6027832 44.00634766 C-14.06165531 45.41658618 -14.50652073 46.83149344 -14.93432617 48.25146484 C-15.96841915 51.36152507 -16.6594023 52.78705939 -19.48046875 54.55078125 C-22 55 -22 55 -25 53 C-24.41276043 49.0480952 -23.58676842 45.37615506 -22.328125 41.5859375 C-21.99586914 40.58328857 -21.66361328 39.58063965 -21.32128906 38.54760742 C-20.96776367 37.50064697 -20.61423828 36.45368652 -20.25 35.375 C-19.88874023 34.29774658 -19.52748047 33.22049316 -19.15527344 32.1105957 C-17.02020318 25.81175683 -14.77213415 19.64177077 -12.08984375 13.5546875 C-10.48862404 9.80129075 -9.19443318 5.94854805 -7.89453125 2.08203125 C-6.15363917 -1.96991408 -3.72649324 -0.8825905 0 0 Z " fill="#898A88" transform="translate(297,203)"/>
<path d="M0 0 C0.9215538 0.00222061 1.8431076 0.00444122 2.79258728 0.00672913 C3.83359085 0.00680466 4.87459442 0.00688019 5.94714355 0.00695801 C7.07941879 0.01211929 8.21169403 0.01728058 9.37828064 0.02259827 C10.53106003 0.02401321 11.68383942 0.02542816 12.87155151 0.02688599 C16.57043503 0.03250446 20.26925903 0.0450601 23.96812439 0.05775452 C26.46877456 0.06276714 28.96942567 0.06733045 31.47007751 0.07142639 C37.61528027 0.0824799 43.76044808 0.099236 49.90562439 0.12025452 C50.56562439 1.77025452 51.22562439 3.42025452 51.90562439 5.12025452 C50.2108238 7.22678915 49.33337925 8.05015256 46.62216187 8.49447632 C45.28218895 8.49353218 45.28218895 8.49353218 43.91514587 8.49256897 C42.39358131 8.50191216 42.39358131 8.50191216 40.84127808 8.51144409 C39.7474733 8.50223434 38.65366852 8.4930246 37.52671814 8.48353577 C35.84220299 8.48428352 35.84220299 8.48428352 34.12365723 8.48504639 C31.74895967 8.48270495 29.37425967 8.47297243 26.99961853 8.45643616 C23.35413053 8.4328258 19.70937261 8.43587712 16.06382751 8.44252014 C13.75978667 8.43694421 11.45574893 8.42983487 9.15171814 8.42103577 C7.50797462 8.42240288 7.50797462 8.42240288 5.83102417 8.42379761 C4.81979996 8.41426559 3.80857574 8.40473358 2.76670837 8.39491272 C1.87418869 8.39030533 0.98166901 8.38569794 0.06210327 8.38095093 C-2.09437561 8.12025452 -2.09437561 8.12025452 -4.09437561 6.12025452 C-3.37161172 0.19359065 -3.37161172 0.19359065 0 0 Z " fill="#909190" transform="translate(184.09437561035156,154.87974548339844)"/>
<path d="M0 0 C0.75601501 0.00045822 1.51203003 0.00091644 2.29095459 0.00138855 C3.89141406 0.00440871 5.49187064 0.012288 7.09228516 0.0246582 C9.52387092 0.04279715 11.95507268 0.04516854 14.38671875 0.04492188 C15.94531575 0.04984222 17.50391019 0.05567278 19.0625 0.0625 C20.14256317 0.06416924 20.14256317 0.06416924 21.2444458 0.06587219 C33.24313763 0.17673138 33.24313763 0.17673138 35.296875 2.23046875 C35.484375 4.66796875 35.484375 4.66796875 35.296875 7.23046875 C32.90840673 9.61893702 32.40466925 9.48239315 29.15429688 9.48925781 C28.30001099 9.49556213 27.4457251 9.50186646 26.56555176 9.50836182 C25.64157593 9.50431335 24.7176001 9.50026489 23.765625 9.49609375 C22.81876831 9.4980072 21.87191162 9.49992065 20.8963623 9.50189209 C18.89233128 9.50325448 16.88829146 9.49955431 14.88427734 9.49121094 C11.80936947 9.48051222 8.73504586 9.49110447 5.66015625 9.50390625 C3.71614454 9.50258466 1.77213319 9.50002229 -0.171875 9.49609375 C-1.55783875 9.50216644 -1.55783875 9.50216644 -2.97180176 9.50836182 C-3.82608765 9.5020575 -4.68037354 9.49575317 -5.56054688 9.48925781 C-6.31396362 9.48766663 -7.06738037 9.48607544 -7.84362793 9.48443604 C-9.703125 9.23046875 -9.703125 9.23046875 -11.703125 7.23046875 C-11.515625 4.73046875 -11.515625 4.73046875 -10.703125 2.23046875 C-7.02269064 -0.22315416 -4.25353046 -0.04197524 0 0 Z " fill="#8B8B8A" transform="translate(165.703125,207.76953125)"/>
<path d="M0 0 C1.34160439 -0.00956978 1.34160439 -0.00956978 2.71031189 -0.01933289 C3.68319656 -0.02044571 4.65608124 -0.02155853 5.65844727 -0.02270508 C6.65111099 -0.02603348 7.64377472 -0.02936188 8.66651917 -0.03279114 C10.77067602 -0.03786473 12.87484094 -0.04019933 14.97900391 -0.04003906 C18.20757234 -0.04222463 21.43579878 -0.06037332 24.66430664 -0.0793457 C26.70401901 -0.08227965 28.74373301 -0.08426444 30.78344727 -0.08520508 C32.23973793 -0.09598335 32.23973793 -0.09598335 33.72544861 -0.10697937 C34.62300369 -0.10390274 35.52055878 -0.10082611 36.4453125 -0.09765625 C37.23727524 -0.09908127 38.02923798 -0.10050629 38.84519958 -0.10197449 C40.78735352 0.14526367 40.78735352 0.14526367 42.78735352 2.14526367 C42.53735352 4.70776367 42.53735352 4.70776367 41.78735352 7.14526367 C39.49532363 8.29127861 38.19278661 8.27763607 35.64477539 8.29052734 C34.36334656 8.30009712 34.36334656 8.30009712 33.05603027 8.30986023 C31.67006653 8.31152946 31.67006653 8.31152946 30.25610352 8.31323242 C29.30924683 8.31656082 28.36239014 8.31988922 27.38684082 8.32331848 C25.38281745 8.32838613 23.37878563 8.33072686 21.37475586 8.33056641 C18.29990848 8.33275474 15.2254187 8.35091721 12.15063477 8.36987305 C10.20662558 8.37280656 8.26261469 8.37479164 6.31860352 8.37573242 C4.93263977 8.3865107 4.93263977 8.3865107 3.51867676 8.39750671 C2.66439087 8.39443008 1.81010498 8.39135345 0.92993164 8.38818359 C0.17651489 8.38960861 -0.57690186 8.39103363 -1.35314941 8.39250183 C-3.21264648 8.14526367 -3.21264648 8.14526367 -5.21264648 6.14526367 C-5.40014648 3.58276367 -5.40014648 3.58276367 -5.21264648 1.14526367 C-3.65695472 -0.41042809 -2.16339731 0.01042312 0 0 Z " fill="#8B8C8A" transform="translate(155.212646484375,235.854736328125)"/>
<path d="M0 0 C5.75844315 0.28305711 9.63672555 2.93670827 14.3125 6 C15.40401367 6.69609375 15.40401367 6.69609375 16.51757812 7.40625 C21.78133117 10.78133117 21.78133117 10.78133117 23 12 C23.375 14.3125 23.375 14.3125 23 17 C19.18474563 20.47369826 14.82634197 23.13258764 10.4375 25.8125 C9.77814453 26.23208984 9.11878906 26.65167969 8.43945312 27.08398438 C3.51142277 30.09033053 3.51142277 30.09033053 0.78149414 29.6081543 C0.19360107 29.40746338 -0.39429199 29.20677246 -1 29 C-1.33 27.35 -1.66 25.7 -2 24 C7.41002278 17.66514806 7.41002278 17.66514806 12 15 C10.89932004 14.18278283 9.79430269 13.37140549 8.6875 12.5625 C7.76517578 11.88380859 7.76517578 11.88380859 6.82421875 11.19140625 C4.90322899 9.82663692 4.90322899 9.82663692 2 9 C2 8.34 2 7.68 2 7 C0.68 6.34 -0.64 5.68 -2 5 C-1.125 1.125 -1.125 1.125 0 0 Z " fill="#888988" transform="translate(302,215)"/>
<path d="M0 0 C1.0828125 0.3403125 1.0828125 0.3403125 2.1875 0.6875 C2.55859375 2.92578125 2.55859375 2.92578125 2.1875 5.6875 C-0.40234375 7.85546875 -0.40234375 7.85546875 -3.75 9.875 C-7.95955416 12.13567982 -7.95955416 12.13567982 -10.8125 15.6875 C-10.1525 15.914375 -9.4925 16.14125 -8.8125 16.375 C-4.88873213 18.09164844 -1.084688 19.88504215 2.1875 22.6875 C2.6875 25.5 2.6875 25.5 2.1875 27.6875 C0.43554688 28.80322266 0.43554688 28.80322266 -1.8125 29.6875 C-3.76367188 29.06005859 -3.76367188 29.06005859 -5.78125 27.8359375 C-6.51730469 27.39636719 -7.25335938 26.95679688 -8.01171875 26.50390625 C-8.77097656 26.02824219 -9.53023438 25.55257812 -10.3125 25.0625 C-11.07175781 24.61003906 -11.83101562 24.15757812 -12.61328125 23.69140625 C-20.41567323 18.94984755 -20.41567323 18.94984755 -22.8125 15.6875 C-22.984375 13.72265625 -22.984375 13.72265625 -21.8125 11.6875 C-19.58167288 10.00269994 -17.44573128 8.5554212 -15.0625 7.125 C-14.44117188 6.73892578 -13.81984375 6.35285156 -13.1796875 5.95507812 C-11.96144127 5.20074212 -10.73845473 4.45399955 -9.51049805 3.71557617 C-8.00142843 2.8018893 -6.51631356 1.84889836 -5.03515625 0.890625 C-2.8125 -0.3125 -2.8125 -0.3125 0 0 Z " fill="#868785" transform="translate(266.8125,215.3125)"/>
<path d="M0 0 C0.66 0.33 1.32 0.66 2 1 C1.01 2.65 0.02 4.3 -1 6 C2.465 5.505 2.465 5.505 6 5 C6 5.66 6 6.32 6 7 C5.175 7.474375 4.35 7.94875 3.5 8.4375 C-4.63413764 13.58398045 -10.6045147 24.42409987 -12.90234375 33.60546875 C-13.65478527 37.06253878 -14.35509622 40.52142811 -15 44 C-15.33 44 -15.66 44 -16 44 C-16.66 42.02 -17.32 40.04 -18 38 C-21.13270409 39.59266174 -21.13270409 39.59266174 -21.43237305 41.87939453 C-21.45855713 42.62302246 -21.48474121 43.36665039 -21.51171875 44.1328125 C-21.54716797 44.93847656 -21.58261719 45.74414062 -21.61914062 46.57421875 C-21.64169922 47.41597656 -21.66425781 48.25773437 -21.6875 49.125 C-21.72166016 49.97449219 -21.75582031 50.82398438 -21.79101562 51.69921875 C-21.87359173 53.79901105 -21.93846978 55.89948564 -22 58 C-22.33 58 -22.66 58 -23 58 C-23.6809544 39.02785381 -20.9569127 23.91872777 -9.33203125 8.3984375 C-8.67267578 7.70621094 -8.67267578 7.70621094 -8 7 C-7.34 7 -6.68 7 -6 7 C-6 6.34 -6 5.68 -6 5 C-4.04072937 3.2856382 -2.04119788 1.61594832 0 0 Z " fill="#838782" transform="translate(250,184)"/>
<path d="M0 0 C1.35581932 -0.0049926 1.35581932 -0.0049926 2.73902893 -0.01008606 C4.65487152 -0.01515921 6.57072297 -0.01749427 8.48657227 -0.01733398 C11.42544043 -0.01951938 14.36393277 -0.0376679 17.30273438 -0.05664062 C19.16015496 -0.05957462 21.01757734 -0.06155938 22.875 -0.0625 C23.75836533 -0.06968552 24.64173065 -0.07687103 25.55186462 -0.08427429 C31.77508486 -0.06085264 31.77508486 -0.06085264 34.00390625 2.16796875 C33.62890625 4.79296875 33.62890625 4.79296875 33.00390625 7.16796875 C29.62958598 8.29274217 27.05573857 8.29737514 23.5 8.30078125 C22.20126953 8.30207031 20.90253906 8.30335938 19.56445312 8.3046875 C18.54726196 8.30154541 18.54726196 8.30154541 17.50952148 8.29833984 C15.47306644 8.29305097 13.43683825 8.29825791 11.40039062 8.3046875 C4.20577137 8.29759571 -2.8577643 8.09827204 -9.99609375 7.16796875 C-10.03863731 5.16842129 -10.03690158 3.16755239 -9.99609375 1.16796875 C-7.8542773 -0.9738477 -2.97031449 0.00373331 0 0 Z " fill="#8F908F" transform="translate(173.99609375,181.83203125)"/>
<path d="M0 0 C1.11375 0.33 2.2275 0.66 3.375 1 C7.37381943 2.25548752 7.37381943 2.25548752 11 1 C11.66 1.66 12.32 2.32 13 3 C11.35 3.66 9.7 4.32 8 5 C8 5.66 8 6.32 8 7 C4.53846154 10 4.53846154 10 2 10 C1.75894531 10.56847656 1.51789063 11.13695313 1.26953125 11.72265625 C-0.24968088 14.44788908 -2.07418981 16.26690339 -4.3125 18.4375 C-5.11171875 19.21867187 -5.9109375 19.99984375 -6.734375 20.8046875 C-7.85585937 21.89136719 -7.85585937 21.89136719 -9 23 C-10.02317737 24.0184839 -11.04459587 25.03874585 -12.0625 26.0625 C-12.701875 26.701875 -13.34125 27.34125 -14 28 C-14.66 26.68 -15.32 25.36 -16 24 C-17.97536745 24.34786708 -17.97536745 24.34786708 -20 25 C-20.33 25.66 -20.66 26.32 -21 27 C-21.66 27 -22.32 27 -23 27 C-19.16863597 18.3693484 -11.20144293 10.02710691 -4 4 C-3.34 4 -2.68 4 -2 4 C-1.34 2.68 -0.68 1.36 0 0 Z " fill="#868685" transform="translate(140,115)"/>
<path d="M0 0 C1.05368774 0.00012085 1.05368774 0.00012085 2.12866211 0.00024414 C4.27087312 -0.00194055 6.41256783 -0.02008824 8.5546875 -0.0390625 C9.91080552 -0.04199671 11.266926 -0.04398132 12.62304688 -0.04492188 C13.86304443 -0.04903076 15.10304199 -0.05313965 16.38061523 -0.05737305 C19.34570312 0.18554688 19.34570312 0.18554688 21.34570312 2.18554688 C20.79014757 6.74110243 20.79014757 6.74110243 19.34570312 8.18554688 C15.08821886 8.40364443 10.82524588 8.37133848 6.56274414 8.37084961 C4.42053313 8.3730343 2.27883842 8.39118199 0.13671875 8.41015625 C-1.21939927 8.41309046 -2.57551975 8.41507507 -3.93164062 8.41601562 C-5.17163818 8.42012451 -6.41163574 8.4242334 -7.68920898 8.4284668 C-10.65429688 8.18554688 -10.65429688 8.18554688 -12.65429688 6.18554688 C-11.67210083 -1.86846067 -6.95887914 0.02524407 0 0 Z " fill="#999998" transform="translate(146.654296875,262.814453125)"/>
<path d="M0 0 C0.33 1.65 0.66 3.3 1 5 C0.45730469 5.45890625 -0.08539063 5.9178125 -0.64453125 6.390625 C-1.35996094 7.00421875 -2.07539063 7.6178125 -2.8125 8.25 C-3.52019531 8.85328125 -4.22789062 9.4565625 -4.95703125 10.078125 C-7.05997556 11.93917218 -7.05997556 11.93917218 -8.63671875 14.234375 C-9.08660156 14.81703125 -9.53648437 15.3996875 -10 16 C-10.66 16 -11.32 16 -12 16 C-12 16.66 -12 17.32 -12 18 C-12.66 18 -13.32 18 -14 18 C-14.33 18.99 -14.66 19.98 -15 21 C-15.66 21 -16.32 21 -17 21 C-17 21.66 -17 22.32 -17 23 C-20.05263664 23.98120464 -21.94736336 23.98120464 -25 23 C-24.4784704 19.10652624 -23.62881119 17.11909432 -20.8671875 14.3359375 C-19.90425781 13.36527344 -19.90425781 13.36527344 -18.921875 12.375 C-18.24640625 11.715 -17.5709375 11.055 -16.875 10.375 C-16.22273437 9.70726562 -15.57046875 9.03953125 -14.8984375 8.3515625 C-10.72703654 4.21326789 -6.2511229 0 0 0 Z " fill="#8E8F8F" transform="translate(229,311)"/>
<path d="M0 0 C1.02544922 -0.00128906 2.05089844 -0.00257813 3.10742188 -0.00390625 C4.72680664 0.00189453 4.72680664 0.00189453 6.37890625 0.0078125 C7.45462891 0.00394531 8.53035156 0.00007813 9.63867188 -0.00390625 C11.1787793 -0.00197266 11.1787793 -0.00197266 12.75 0 C13.69673584 0.00112793 14.64347168 0.00225586 15.61889648 0.00341797 C17.94140625 0.1328125 17.94140625 0.1328125 19.94140625 1.1328125 C19.98394981 3.13235996 19.98221408 5.13322886 19.94140625 7.1328125 C17.40830903 9.66590972 10.41145717 8.31836421 7.00390625 8.3203125 C5.88048828 8.33255859 4.75707031 8.34480469 3.59960938 8.35742188 C2.52775391 8.35935547 1.45589844 8.36128906 0.3515625 8.36328125 C-1.13138306 8.36944458 -1.13138306 8.36944458 -2.64428711 8.37573242 C-5.05859375 8.1328125 -5.05859375 8.1328125 -7.05859375 6.1328125 C-6.36257427 0.42545273 -5.56744137 0.00664089 0 0 Z " fill="#898A87" transform="translate(184.05859375,262.8671875)"/>
<path d="M0 0 C0.33 0 0.66 0 1 0 C1.08636719 0.81082031 1.17273438 1.62164062 1.26171875 2.45703125 C2.41179686 11.52049085 4.85674524 18.91162523 9.66015625 26.6875 C11 29 11 29 11 31 C9.02 31.99 9.02 31.99 7 33 C7 34.65 7 36.3 7 38 C4.02993671 36.51496836 3.49198441 34.26967768 2.0625 31.3125 C1.55847656 30.27738281 1.05445313 29.24226563 0.53515625 28.17578125 C0.02855469 27.12777344 -0.47804687 26.07976562 -1 25 C-1.53367188 23.95199219 -2.06734375 22.90398437 -2.6171875 21.82421875 C-5.18229373 16.58531534 -6.28412097 11.82447979 -6 6 C-5.67 7.32 -5.34 8.64 -5 10 C-3.68 10 -2.36 10 -1 10 C-0.67 6.7 -0.34 3.4 0 0 Z " fill="#878786" transform="translate(220,239)"/>
<path d="M0 0 C1.625 1.625 1.625 1.625 3 4 C2.25 7.0625 2.25 7.0625 1 10 C-0.11129069 13.33387207 -0.34815097 16.35937408 -0.62109375 19.84375 C-1 22 -1 22 -3 25 C-3.99 24.67 -4.98 24.34 -6 24 C-6 23.34 -6 22.68 -6 22 C-6.94875 22.515625 -7.8975 23.03125 -8.875 23.5625 C-9.90625 24.036875 -10.9375 24.51125 -12 25 C-12.66 24.67 -13.32 24.34 -14 24 C-13.175 23.278125 -12.35 22.55625 -11.5 21.8125 C-8.84397469 19.28577506 -8.84397469 19.28577506 -8.4375 16.4375 C-9.16141249 13.30054588 -10.57570925 12.04549532 -13 10 C-12.67 9.34 -12.34 8.68 -12 8 C-11.01 8 -10.02 8 -9 8 C-8.34 7.67 -7.68 7.34 -7 7 C-7 6.01 -7 5.02 -7 4 C-6.01 4 -5.02 4 -4 4 C-1.84971696 3.05021103 -1.84971696 3.05021103 0 2 C0 1.34 0 0.68 0 0 Z " fill="#858584" transform="translate(235,289)"/>
<path d="M0 0 C2.625 0.9375 2.625 0.9375 5 2 C5.05786668 5.79160297 5.09355054 9.58309311 5.125 13.375 C5.14175781 14.45523437 5.15851563 15.53546875 5.17578125 16.6484375 C5.18222656 17.6796875 5.18867188 18.7109375 5.1953125 19.7734375 C5.20578613 20.72653809 5.21625977 21.67963867 5.22705078 22.66162109 C5 25 5 25 3 27 C1.35 26.67 -0.3 26.34 -2 26 C-2 17.75 -2 9.5 -2 1 C-1.34 0.67 -0.68 0.34 0 0 Z " fill="#949594" transform="translate(332,262)"/>
<path d="M0 0 C1.92667527 1.77254125 2.9487613 3.19213647 3.1171875 5.84765625 C2.57865515 12.29833722 1.03594535 19.27635009 -2 25 C-4.453125 26.47265625 -4.453125 26.47265625 -7 27 C-7.99 26.34 -8.98 25.68 -10 25 C-9.55541263 20.88756685 -8.48613569 17.09868515 -7.1875 13.1875 C-6.87167969 12.23230469 -6.55585938 11.27710938 -6.23046875 10.29296875 C-5 8 -5 8 -2.86328125 7.17578125 C-2.24839844 7.11777344 -1.63351562 7.05976563 -1 7 C-1.20625 6.21625 -1.4125 5.4325 -1.625 4.625 C-1.74875 3.75875 -1.8725 2.8925 -2 2 C-1.34 1.34 -0.68 0.68 0 0 Z " fill="#8A8A8A" transform="translate(282,231)"/>
<path d="M0 0 C0.33 0 0.66 0 1 0 C1.12117188 0.96679688 1.24234375 1.93359375 1.3671875 2.9296875 C2.2302587 9.63508686 3.12789553 16.25308041 4.6328125 22.8515625 C5.04554322 25.2664763 5.06006084 27.55466573 5 30 C3.02 30 1.04 30 -1 30 C-1.66 31.32 -2.32 32.64 -3 34 C-3.50744423 32.10614563 -4.00564574 30.20981334 -4.5 28.3125 C-4.7784375 27.25675781 -5.056875 26.20101563 -5.34375 25.11328125 C-5.9391715 22.28857328 -6.12786492 19.87163292 -6 17 C-4.66666667 16.33333333 -3.33333333 15.66666667 -2 15 C-1.34 15.33 -0.68 15.66 0 16 C-0.37125 15.21625 -0.7425 14.4325 -1.125 13.625 C-2.31280222 8.7041051 -1.24095099 4.83016308 0 0 Z " fill="#8A8B8B" transform="translate(91,257)"/>
<path d="M0 0 C4.44595063 4.44595063 3.05543145 13.72871452 3.0625 19.6875 C3.04674879 21.45838583 3.02781263 23.22926253 3 25 C-0.75 26.125 -0.75 26.125 -3 25 C-3.96088383 22.11734851 -4.11670941 20.32337729 -4.09765625 17.33203125 C-4.09443359 16.43935547 -4.09121094 15.54667969 -4.08789062 14.62695312 C-4.07951172 13.69818359 -4.07113281 12.76941406 -4.0625 11.8125 C-4.05798828 10.87212891 -4.05347656 9.93175781 -4.04882812 8.96289062 C-4.03704626 6.64186288 -4.02059558 4.32096356 -4 2 C-2.68 1.34 -1.36 0.68 0 0 Z " fill="#949594" transform="translate(232,221)"/>
<path d="M0 0 C0.33 0.99 0.66 1.98 1 3 C2.32 2.67 3.64 2.34 5 2 C5.33 2.99 5.66 3.98 6 5 C4.63671875 7.04296875 4.63671875 7.04296875 2.6875 9.1875 C2.05199219 9.90292969 1.41648438 10.61835938 0.76171875 11.35546875 C-1 13 -1 13 -3 13 C-3.2475 13.61875 -3.495 14.2375 -3.75 14.875 C-5.20628639 17.35068687 -6.37812506 17.95125002 -9 19 C-10.125 15.25 -10.125 15.25 -9 13 C-10.32 13.33 -11.64 13.66 -13 14 C-8.88380164 9.08064098 -4.59589638 4.47352044 0 0 Z " fill="#858584" transform="translate(203,331)"/>
<path d="M0 0 C1.9609375 0.015625 1.9609375 0.015625 4.375 0.25 C5.16648437 0.31703125 5.95796875 0.3840625 6.7734375 0.453125 C9.39479616 1.09696748 10.3645238 1.88108115 12 4 C12.33333333 5.66666667 12.66666667 7.33333333 13 9 C13.53625 9.515625 14.0725 10.03125 14.625 10.5625 C15.305625 11.2740625 15.305625 11.2740625 16 12 C15.6875 14.1875 15.6875 14.1875 15 16 C8.63265306 15.63265306 8.63265306 15.63265306 5.5625 12.5625 C4 10 4 10 4 8 C3.34 8 2.68 8 2 8 C1.01 5.69 0.02 3.38 -1 1 C-0.67 0.67 -0.34 0.34 0 0 Z " fill="#8C8C8B" transform="translate(369,134)"/>
<path d="M0 0 C1.32 0.33 2.64 0.66 4 1 C3.72117305 6.43712561 1.45811102 9.55529345 -1.72265625 13.75390625 C-3.23428977 16.41197742 -3.31580684 17.98730297 -3 21 C-2.67 21.66 -2.34 22.32 -2 23 C-2.99 22.67 -3.98 22.34 -5 22 C-5 20.35 -5 18.7 -5 17 C-6.32 17.33 -7.64 17.66 -9 18 C-9.33 19.65 -9.66 21.3 -10 23 C-10.33 23 -10.66 23 -11 23 C-11.63218711 16.04594184 -10.11457598 11.65336049 -6 6 C-3.25 3.5625 -3.25 3.5625 -1 2 C-0.67 1.34 -0.34 0.68 0 0 Z " fill="#8B8B8A" transform="translate(301,285)"/>
<path d="M0 0 C0.66 0 1.32 0 2 0 C1.67 1.32 1.34 2.64 1 4 C2.32 4.33 3.64 4.66 5 5 C4.85691406 6.01320313 4.85691406 6.01320313 4.7109375 7.046875 C4.54464844 8.38492187 4.54464844 8.38492187 4.375 9.75 C4.25898438 10.63171875 4.14296875 11.5134375 4.0234375 12.421875 C3.99792183 15.22859878 4.55156156 16.63384866 6 19 C5.401875 19.12375 4.80375 19.2475 4.1875 19.375 C1.73768652 19.95475985 1.73768652 19.95475985 -1 22 C-4.21878564 17.97651795 -4.4975161 14.48327962 -4.37109375 9.515625 C-3.79921934 5.63891846 -2.22302022 3.19559157 0 0 Z " fill="#848583" transform="translate(162,328)"/>
<path d="M0 0 C1.125 1.75 1.125 1.75 2 4 C1.125 6.25 1.125 6.25 0 8 C0.66 8 1.32 8 2 8 C2 9.32 2 10.64 2 12 C2.66 12 3.32 12 4 12 C3.36843005 17.05255964 1.86540627 21.29593201 0 26 C-0.66 24.68 -1.32 23.36 -2 22 C-1.34 22 -0.68 22 0 22 C-1.9254644 19.7763932 -1.9254644 19.7763932 -5 19 C-5.28875 19.639375 -5.5775 20.27875 -5.875 20.9375 C-7 23 -7 23 -9 24 C-8.0266949 19.871588 -6.5590148 15.96199601 -5.0625 12 C-4.66514648 10.93265625 -4.66514648 10.93265625 -4.25976562 9.84375 C-2.99158419 6.47032445 -1.71372805 3.17908971 0 0 Z " fill="#878886" transform="translate(100,168)"/>
<path d="M0 0 C0.70253906 0.00386719 1.40507812 0.00773438 2.12890625 0.01171875 C2.83144531 0.00785156 3.53398437 0.00398437 4.2578125 0 C9.50229247 0.01010497 9.50229247 0.01010497 10.62890625 1.13671875 C10.81640625 3.57421875 10.81640625 3.57421875 10.62890625 6.13671875 C8.62890625 8.13671875 8.62890625 8.13671875 5.66015625 8.3671875 C4.49484375 8.35300781 3.32953125 8.33882812 2.12890625 8.32421875 C0.96359375 8.31777344 -0.20171875 8.31132812 -1.40234375 8.3046875 C-4.37109375 8.13671875 -4.37109375 8.13671875 -6.37109375 7.13671875 C-6.41363731 5.13717129 -6.41190158 3.13630239 -6.37109375 1.13671875 C-4.61549433 -0.61888067 -2.33526933 0.00449956 0 0 Z " fill="#878785" transform="translate(160.37109375,154.86328125)"/>
<path d="M0 0 C0.66 0.33 1.32 0.66 2 1 C2.625 3.0625 2.625 3.0625 3 5 C4.65 4.67 6.3 4.34 8 4 C8 3.34 8 2.68 8 2 C8.66 2 9.32 2 10 2 C10 2.66 10 3.32 10 4 C10.66 4.33 11.32 4.66 12 5 C10.77023437 5.50660156 10.77023437 5.50660156 9.515625 6.0234375 C8.43796875 6.46945313 7.3603125 6.91546875 6.25 7.375 C5.18265625 7.81585938 4.1153125 8.25671875 3.015625 8.7109375 C0.11723598 9.89699297 0.11723598 9.89699297 -2.09375 11.125 C-4.35075332 12.16100153 -6.28247119 12.40727687 -8.75 12.625 C-9.54921875 12.69976562 -10.3484375 12.77453125 -11.171875 12.8515625 C-12.07679688 12.92503906 -12.07679688 12.92503906 -13 13 C-12.02076619 8.08299618 -9.29791904 5.57148012 -5.18359375 2.7578125 C-3.3125 1.625 -3.3125 1.625 0 0 Z " fill="#878886" transform="translate(262,177)"/>
<path d="M0 0 C4.39860857 2.4632208 4.98479976 5.48611616 6.55859375 10.12109375 C7.125 12.75 7.125 12.75 6.125 15.75 C5.795 14.1 5.465 12.45 5.125 10.75 C3.14008358 11.01676204 3.14008358 11.01676204 1.125 11.75 C0.795 12.74 0.465 13.73 0.125 14.75 C1.115 14.42 2.105 14.09 3.125 13.75 C3.455 14.41 3.785 15.07 4.125 15.75 C3.465 16.08 2.805 16.41 2.125 16.75 C2.125 20.71 2.125 24.67 2.125 28.75 C1.795 28.75 1.465 28.75 1.125 28.75 C1.01542969 27.98816406 0.90585937 27.22632813 0.79296875 26.44140625 C-0.09513756 20.65788464 -1.22343379 15.29764286 -3.2109375 9.796875 C-4.1830752 6.80040349 -4.54233858 3.87701731 -4.875 0.75 C-2.875 -0.25 -2.875 -0.25 0 0 Z " fill="#848583" transform="translate(348.875,198.25)"/>
<path d="M0 0 C3.82684692 0.46186084 6.31881195 1.50217041 9.625 3.4375 C9.625 5.7475 9.625 8.0575 9.625 10.4375 C5.053721 9.88894652 0.95064205 9.02005197 -3.375 7.4375 C-3.375 6.7775 -3.375 6.1175 -3.375 5.4375 C-4.695 5.1075 -6.015 4.7775 -7.375 4.4375 C-5.00217806 1.40028792 -3.89120801 0.50441585 0 0 Z " fill="#898A89" transform="translate(304.375,160.5625)"/>
<path d="M0 0 C2.4375 0.6875 2.4375 0.6875 5 2 C6.18908815 5.72236292 5.91665689 8.54416079 5.0625 12.3125 C4.86785156 13.19550781 4.67320312 14.07851562 4.47265625 14.98828125 C4.31667969 15.65214844 4.16070312 16.31601563 4 17 C3.67 17 3.34 17 3 17 C2.34 15.02 1.68 13.04 1 11 C-2.13270409 12.59266174 -2.13270409 12.59266174 -2.43237305 14.87939453 C-2.45855713 15.62302246 -2.48474121 16.36665039 -2.51171875 17.1328125 C-2.54716797 17.93847656 -2.58261719 18.74414062 -2.61914062 19.57421875 C-2.64169922 20.41597656 -2.66425781 21.25773437 -2.6875 22.125 C-2.72166016 22.97449219 -2.75582031 23.82398438 -2.79101562 24.69921875 C-2.87359173 26.79901105 -2.93846978 28.89948564 -3 31 C-3.33 31 -3.66 31 -4 31 C-4.63501639 8.62788413 -4.63501639 8.62788413 -1 1 C-0.67 0.67 -0.34 0.34 0 0 Z " fill="#7D7E7C" transform="translate(231,211)"/>
<path d="M0 0 C1.485 0.99 1.485 0.99 3 2 C3 2.66 3 3.32 3 4 C4.98491642 3.73323796 4.98491642 3.73323796 7 3 C7.33 2.01 7.66 1.02 8 0 C8.4803318 1.58298026 8.95921612 3.16639978 9.4375 4.75 C9.83775391 6.07257813 9.83775391 6.07257813 10.24609375 7.421875 C10.88468494 9.60565835 11.46775833 11.78835498 12 14 C11.21625 14.309375 10.4325 14.61875 9.625 14.9375 C7.07669872 15.92875038 7.07669872 15.92875038 5 17 C4.15838146 14.91999989 3.32699237 12.83585854 2.5 10.75 C2.0359375 9.58984375 1.571875 8.4296875 1.09375 7.234375 C0 4 0 4 0 0 Z " fill="#8B8C8B" transform="translate(228,243)"/>
<path d="M0 0 C3.4922726 0.98499996 6.38482116 2.4782204 9 5 C9.875 7.5 9.875 7.5 10 10 C9.01 11.485 9.01 11.485 8 13 C3.38207835 11.50596652 0.4372045 9.35726951 -3 6 C-3 4.68 -3 3.36 -3 2 C-2.01 1.34 -1.02 0.68 0 0 Z " fill="#8D8E8D" transform="translate(251,272)"/>
<path d="M0 0 C0.66 0 1.32 0 2 0 C1.42871757 4.28853112 -0.09094395 7.13991377 -2.4375 10.75 C-3.05496094 11.71421875 -3.67242187 12.6784375 -4.30859375 13.671875 C-6 16 -6 16 -8 17 C-8.66 16.34 -9.32 15.68 -10 15 C-11.67422986 15.29299023 -13.34178227 15.62690101 -15 16 C-15.66 15.67 -16.32 15.34 -17 15 C-15.35 12.36 -13.7 9.72 -12 7 C-11.34 7.66 -10.68 8.32 -10 9 C-7.98045559 8.66179847 -7.98045559 8.66179847 -6 8 C-5.34 8 -4.68 8 -4 8 C-4 7.34 -4 6.68 -4 6 C-3.01 6 -2.02 6 -1 6 C-0.67 4.02 -0.34 2.04 0 0 Z " fill="#8B8B8B" transform="translate(392,330)"/>
<path d="M0 0 C1.05368774 0.00012085 1.05368774 0.00012085 2.12866211 0.00024414 C4.27087312 -0.00194055 6.41256783 -0.02008824 8.5546875 -0.0390625 C9.91080552 -0.04199671 11.266926 -0.04398132 12.62304688 -0.04492188 C13.86304443 -0.04903076 15.10304199 -0.05313965 16.38061523 -0.05737305 C19.34570312 0.18554688 19.34570312 0.18554688 21.34570312 2.18554688 C20.79014757 6.74110243 20.79014757 6.74110243 19.34570312 8.18554688 C15.08821886 8.40364443 10.82524588 8.37133848 6.56274414 8.37084961 C4.42053313 8.3730343 2.27883842 8.39118199 0.13671875 8.41015625 C-1.21939927 8.41309046 -2.57551975 8.41507507 -3.93164062 8.41601562 C-5.17163818 8.42012451 -6.41163574 8.4242334 -7.68920898 8.4284668 C-10.65429688 8.18554688 -10.65429688 8.18554688 -12.65429688 6.18554688 C-11.67210083 -1.86846067 -6.95887914 0.02524407 0 0 Z M-11.65429688 3.18554688 C-11.65429688 4.17554688 -11.65429688 5.16554688 -11.65429688 6.18554688 C-9.0753512 7.47501971 -7.19907797 7.31502537 -4.31445312 7.31835938 C-2.72020508 7.32029297 -2.72020508 7.32029297 -1.09375 7.32226562 C0.02064453 7.31839844 1.13503906 7.31453125 2.28320312 7.31054688 C3.94899414 7.31634766 3.94899414 7.31634766 5.6484375 7.32226562 C6.71255859 7.32097656 7.77667969 7.3196875 8.87304688 7.31835938 C9.85007568 7.31723145 10.82710449 7.31610352 11.83374023 7.31494141 C14.47434876 7.29100157 14.47434876 7.29100157 17.34570312 6.18554688 C18.16949873 4.22425932 18.16949873 4.22425932 18.34570312 2.18554688 C15.6449916 -0.51516465 7.54899349 0.99989405 3.90820312 0.99804688 C2.64169922 0.98580078 1.37519531 0.97355469 0.0703125 0.9609375 C-1.13689453 0.95900391 -2.34410156 0.95707031 -3.58789062 0.95507812 C-4.70220459 0.95096924 -5.81651855 0.94686035 -6.96459961 0.94262695 C-9.80551648 0.90967515 -9.80551648 0.90967515 -11.65429688 3.18554688 Z " fill="#696969" transform="translate(146.654296875,262.814453125)"/>
<path d="M0 0 C3.58102841 3.38208239 6.56773474 6.69676146 9 11 C8 14 8 14 6 17 C3.625 17.5625 3.625 17.5625 1 17 C-1.3125 14 -1.3125 14 -3 11 C-2.67 10.34 -2.34 9.68 -2 9 C-0.35 9 1.3 9 3 9 C2.505 8.071875 2.01 7.14375 1.5 6.1875 C0 3 0 3 0 0 Z " fill="#8B8C8A" transform="translate(381,140)"/>
<path d="M0 0 C0.66 0 1.32 0 2 0 C6 4.47058824 6 4.47058824 6 7 C6.66 7 7.32 7 8 7 C8.33 8.98 8.66 10.96 9 13 C8.01 12.67 7.02 12.34 6 12 C6 13.32 6 14.64 6 16 C3.3754772 15.00449135 2.04971273 14.06036546 0.25 11.875 C-1.44285311 7.98143785 -1.28186861 5.22802909 -1 1 C-0.67 0.67 -0.34 0.34 0 0 Z " fill="#8E8F8D" transform="translate(356,271)"/>
<path d="M0 0 C2.79165192 1.50319719 3.19416071 2.49922999 4.4375 5.3125 C2.83834119 6.01156942 1.23294955 6.69639468 -0.375 7.375 C-1.26832031 7.75785156 -2.16164062 8.14070313 -3.08203125 8.53515625 C-5.5625 9.3125 -5.5625 9.3125 -8.5625 8.3125 C-9.75 6.25 -9.75 6.25 -10.5625 4.3125 C-4.10183254 -1.10049166 -4.10183254 -1.10049166 0 0 Z " fill="#949594" transform="translate(179.5625,92.6875)"/>
<path d="M0 0 C1.32 0.66 2.64 1.32 4 2 C3.42380903 5.56764821 2.13030516 7.25159497 -0.4375 9.75 C-1.05496094 10.36359375 -1.67242187 10.9771875 -2.30859375 11.609375 C-4 13 -4 13 -6 13 C-6.99 13.33 -7.98 13.66 -9 14 C-9.75 12.3125 -9.75 12.3125 -10 10 C-7.56059368 6.15324388 -4.90823234 4.21818592 -1 2 C-0.67 1.34 -0.34 0.68 0 0 Z " fill="#91928F" transform="translate(196,297)"/>
<path d="M0 0 C1.23556641 0.01740234 1.23556641 0.01740234 2.49609375 0.03515625 C3.32238281 0.04417969 4.14867187 0.05320313 5 0.0625 C5.63808594 0.07410156 6.27617187 0.08570313 6.93359375 0.09765625 C7.59359375 1.41765625 8.25359375 2.73765625 8.93359375 4.09765625 C7.87109375 6.09765625 7.87109375 6.09765625 5.93359375 8.09765625 C-0.02163013 8.62004431 -0.02163013 8.62004431 -3.06640625 7.09765625 C-3.10894981 5.09810879 -3.10721408 3.09723989 -3.06640625 1.09765625 C-2.06640625 0.09765625 -2.06640625 0.09765625 0 0 Z " fill="#868684" transform="translate(137.06640625,208.90234375)"/>
<path d="M0 0 C0.66 0.33 1.32 0.66 2 1 C0.68 2.32 -0.64 3.64 -2 5 C-0.36526484 8.12474627 -0.36526484 8.12474627 2.125 8.6875 C3.053125 8.8421875 3.053125 8.8421875 4 9 C2.71475739 9.86380259 1.42157581 10.71580369 0.125 11.5625 C-0.59429687 12.03816406 -1.31359375 12.51382813 -2.0546875 13.00390625 C-3.01761719 13.49697266 -3.01761719 13.49697266 -4 14 C-6 13 -6 13 -7.4375 11.0625 C-9.00404743 8.76022448 -9.00404743 8.76022448 -12 7 C-10.04754815 5.80285445 -8.08785003 4.61751926 -6.125 3.4375 C-5.03445312 2.77621094 -3.94390625 2.11492187 -2.8203125 1.43359375 C-1.88960937 0.96050781 -0.95890625 0.48742187 0 0 Z " fill="#858583" transform="translate(172,93)"/>
<path d="M0 0 C1.1446875 0.12375 1.1446875 0.12375 2.3125 0.25 C2.625 3.4375 2.625 3.4375 2.3125 7.25 C-0.1875 10.1875 -0.1875 10.1875 -2.6875 12.25 C-4.6675 11.59 -6.6475 10.93 -8.6875 10.25 C-3.97179204 0.36946903 -3.97179204 0.36946903 0 0 Z " fill="#8F908E" transform="translate(170.6875,321.75)"/>
<path d="M0 0 C1.91015625 0.23046875 1.91015625 0.23046875 3.91015625 2.23046875 C3.53515625 4.85546875 3.53515625 4.85546875 2.91015625 7.23046875 C-3.48984375 8.46123798 -3.48984375 8.46123798 -6.52734375 7.29296875 C-7.04296875 6.94234375 -7.55859375 6.59171875 -8.08984375 6.23046875 C-6.97909637 0.04201908 -6.40293139 0.12782622 0 0 Z " fill="#828282" transform="translate(151.08984375,181.76953125)"/>
<path d="M0 0 C0.721875 0.00257813 1.44375 0.00515625 2.1875 0.0078125 C2.909375 0.00523437 3.63125 0.00265625 4.375 0 C6.1875 0.1328125 6.1875 0.1328125 7.1875 1.1328125 C7.22830783 3.13239614 7.23004356 5.13326504 7.1875 7.1328125 C4.41649606 8.51831447 2.2540294 8.3205592 -0.8125 8.1328125 C-1.8025 7.4728125 -2.7925 6.8128125 -3.8125 6.1328125 C-2.7478791 0.20135321 -2.7478791 0.20135321 0 0 Z " fill="#8D8D8C" transform="translate(132.8125,235.8671875)"/>
<path d="M0 0 C1.32 0.66 2.64 1.32 4 2 C4 6.29 4 10.58 4 15 C1.03 14.505 1.03 14.505 -2 14 C-2 10.37 -2 6.74 -2 3 C-1.34 3 -0.68 3 0 3 C0 2.01 0 1.02 0 0 Z " fill="#949493" transform="translate(339,223)"/>
<path d="M0 0 C-0.49730652 4.97306516 -1.55302334 8.63799813 -4 13 C-8.75 11.125 -8.75 11.125 -11 10 C-9.7978674 5.32503988 -7.45867887 3.53616659 -3.65625 0.91796875 C-2 0 -2 0 0 0 Z " fill="#8E908E" transform="translate(242,201)"/>
<path d="M0 0 C3.42267755 1.20256238 5.55684199 2.33473672 8 5 C8.99 5.66 9.98 6.32 11 7 C7.04 8.98 7.04 8.98 3 11 C1.02 9.02 -0.96 7.04 -3 5 C-1.125 1.125 -1.125 1.125 0 0 Z " fill="#919190" transform="translate(165,346)"/>
<path d="M0 0 C2.94721162 2.74395564 5.19168608 5.38337216 7 9 C6.67 9.66 6.34 10.32 6 11 C5.67 10.01 5.34 9.02 5 8 C2.4345406 10.5654594 2.45953913 12.47686668 2 16 C-4.06666667 8.2 -4.06666667 8.2 -3.875 4.75 C-3 3 -3 3 0 2 C0 1.34 0 0.68 0 0 Z " fill="#828382" transform="translate(353,263)"/>
<path d="M0 0 C1.32 0 2.64 0 4 0 C6.04291409 4.08582818 6.12649041 6.58791254 5 11 C3.9375 13.375 3.9375 13.375 3 15 C2.01 14.34 1.02 13.68 0 13 C0 11.68 0 10.36 0 9 C-0.66 9 -1.32 9 -2 9 C-2.1875 6.625 -2.1875 6.625 -2 4 C-1.01 3.34 -0.02 2.68 1 2 C0.67 1.34 0.34 0.68 0 0 Z " fill="#808180" transform="translate(371,297)"/>
<path d="M0 0 C1.98 0 3.96 0 6 0 C6.38218767 1.65614657 6.71395102 3.32457024 7 5 C6.67 5.33 6.34 5.66 6 6 C6.66 6.66 7.32 7.32 8 8 C6.68 9.65 5.36 11.3 4 13 C3.01 12.67 2.02 12.34 1 12 C0.03929566 9.11788698 -0.10581883 7.30149956 -0.0625 4.3125 C-0.05347656 3.50425781 -0.04445313 2.69601562 -0.03515625 1.86328125 C-0.02355469 1.24839844 -0.01195313 0.63351562 0 0 Z " fill="#969897" transform="translate(89,286)"/>
<path d="M0 0 C2.31 1.98 4.62 3.96 7 6 C6.01 7.485 6.01 7.485 5 9 C4.34 9 3.68 9 3 9 C2.67 10.32 2.34 11.64 2 13 C-0.64 10.36 -3.28 7.72 -6 5 C-5.34 4.67 -4.68 4.34 -4 4 C-3.34 4.33 -2.68 4.66 -2 5 C-1.34 3.35 -0.68 1.7 0 0 Z " fill="#888887" transform="translate(245,265)"/>
<path d="M0 0 C-1.13524124 3.84235498 -2.1258669 7.1258669 -5 10 C-6.32 10 -7.64 10 -9 10 C-9.125 2.25 -9.125 2.25 -8 0 C-4.71023192 -1.09658936 -3.28696233 -0.79953138 0 0 Z " fill="#898987" transform="translate(328,250)"/>
<path d="M0 0 C1 3 1 3 1 5 C2.32 5.33 3.64 5.66 5 6 C4.34 7.98 3.68 9.96 3 12 C1.68 11.01 0.36 10.02 -1 9 C-1 9.99 -1 10.98 -1 12 C-1.66 12 -2.32 12 -3 12 C-3 12.99 -3 13.98 -3 15 C-4.32 14.67 -5.64 14.34 -7 14 C-5.53967505 8.68972746 -3.01679014 4.53669968 0 0 Z " fill="#818280" transform="translate(225,190)"/>
<path d="M0 0 C1.32 0.33 2.64 0.66 4 1 C4.625 3.3125 4.625 3.3125 5 6 C4.01 7.485 4.01 7.485 3 9 C1.33333333 9 -0.33333333 9 -2 9 C-2.99 10.485 -2.99 10.485 -4 12 C-5.125 10.25 -5.125 10.25 -6 8 C-5.125 5.75 -5.125 5.75 -4 4 C-3.34 4 -2.68 4 -2 4 C-1.34 2.68 -0.68 1.36 0 0 Z " fill="#979797" transform="translate(121,138)"/>
<path d="M0 0 C0.33 0.99 0.66 1.98 1 3 C2.32 2.67 3.64 2.34 5 2 C5.33 2.99 5.66 3.98 6 5 C4.56640625 7.04296875 4.56640625 7.04296875 2.5625 9.1875 C1.57443359 10.26064453 1.57443359 10.26064453 0.56640625 11.35546875 C-0.20896484 12.16951172 -0.20896484 12.16951172 -1 13 C-1.33 11.68 -1.66 10.36 -2 9 C-3.65 8.67 -5.3 8.34 -7 8 C-6.02133662 6.85373678 -5.04205413 5.70800212 -4.0625 4.5625 C-3.51722656 3.92441406 -2.97195312 3.28632813 -2.41015625 2.62890625 C-1.63204305 1.73008851 -0.84063472 0.84063472 0 0 Z " fill="#7C7C7C" transform="translate(203,331)"/>
<path d="M0 0 C0.33 0 0.66 0 1 0 C1.33 2.31 1.66 4.62 2 7 C2.66 6.67 3.32 6.34 4 6 C4.33 6.66 4.66 7.32 5 8 C5.66 7.67 6.32 7.34 7 7 C7.19622241 11.21878192 6.80230168 14.17010894 5 18 C2 17 2 17 0.29296875 14.83203125 C-1.26815582 11.41264963 -1.13535038 9.39244407 -0.6875 5.6875 C-0.50767578 4.08455078 -0.50767578 4.08455078 -0.32421875 2.44921875 C-0.21722656 1.64097656 -0.11023438 0.83273438 0 0 Z " fill="#7D7D7C" transform="translate(350,237)"/>
<path d="M0 0 C2.91517292 1.07401108 4.77810176 1.77810176 7 4 C5.35 6.31 3.7 8.62 2 11 C0.35063087 10.21572648 -1.29441127 9.42234741 -2.9375 8.625 C-4.31228516 7.96371094 -4.31228516 7.96371094 -5.71484375 7.2890625 C-8 6 -8 6 -9 4 C-7.00045254 3.95745644 -4.99958364 3.95919217 -3 4 C-2.67 4.33 -2.34 4.66 -2 5 C-1.34 4.67 -0.68 4.34 0 4 C0 2.68 0 1.36 0 0 Z " fill="#898989" transform="translate(333,97)"/>
<path d="M0 0 C-1.2065625 1.175625 -1.2065625 1.175625 -2.4375 2.375 C-4.98690417 4.71982856 -4.98690417 4.71982856 -6 7 C-4.68 7.33 -3.36 7.66 -2 8 C-3.43836751 7.88541307 -4.87570966 7.75790884 -6.3125 7.625 C-7.51326172 7.52058594 -7.51326172 7.52058594 -8.73828125 7.4140625 C-11 7 -11 7 -14 5 C-13 2 -13 2 -11.375 0.875 C-7.69370836 -0.48126534 -3.63462347 -1.81731174 0 0 Z " fill="#808180" transform="translate(183,353)"/>
<path d="M0 0 C0.66 0.33 1.32 0.66 2 1 C1.3125 3.875 1.3125 3.875 0 7 C-2.71629488 8.64407322 -4.17233506 9.13421594 -7.3125 8.625 C-7.869375 8.41875 -8.42625 8.2125 -9 8 C-9.33 6.68 -9.66 5.36 -10 4 C-9.34 4 -8.68 4 -8 4 C-8 3.01 -8 2.02 -8 1 C-7.34 1 -6.68 1 -6 1 C-6 1.99 -6 2.98 -6 4 C-5.34 4 -4.68 4 -4 4 C-4 3.34 -4 2.68 -4 2 C-2.125 0.9375 -2.125 0.9375 0 0 Z " fill="#929493" transform="translate(309,399)"/>
<path d="M0 0 C0.66 0.33 1.32 0.66 2 1 C2.125 3.375 2.125 3.375 2 6 C0 8 0 8 -1.87295532 8.24050903 C-3.01212906 8.2338472 -3.01212906 8.2338472 -4.17431641 8.22705078 C-5.46542831 8.22682419 -5.46542831 8.22682419 -6.78262329 8.22659302 C-7.71287323 8.21627045 -8.64312317 8.20594788 -9.6015625 8.1953125 C-10.55316254 8.1924826 -11.50476257 8.18965271 -12.48519897 8.18673706 C-15.53192592 8.17551989 -18.57836154 8.15041263 -21.625 8.125 C-23.68749576 8.11497218 -25.74999612 8.10584599 -27.8125 8.09765625 C-32.87511267 8.07557554 -37.9375069 8.0410353 -43 8 C-43.33 7.34 -43.66 6.68 -44 6 C-23.705 6.495 -23.705 6.495 -3 7 C-3 6.34 -3 5.68 -3 5 C-2.01 4.67 -1.02 4.34 0 4 C0 2.68 0 1.36 0 0 Z " fill="#727271" transform="translate(199,209)"/>
<path d="M0 0 C1.32 0 2.64 0 4 0 C5.80230168 3.82989106 6.19622241 6.78121808 6 11 C5.34 11 4.68 11 4 11 C4 11.66 4 12.32 4 13 C3.01 13.33 2.02 13.66 1 14 C-0.125 6.25 -0.125 6.25 1 4 C0.34 4 -0.32 4 -1 4 C-0.67 2.68 -0.34 1.36 0 0 Z " fill="#9B9B9A" transform="translate(350,209)"/>
<path d="M0 0 C0.763125 0.20625 1.52625 0.4125 2.3125 0.625 C2.6425 2.605 2.9725 4.585 3.3125 6.625 C2.3225 6.625 1.3325 6.625 0.3125 6.625 C-0.3475 7.285 -1.0075 7.945 -1.6875 8.625 C-3.6675 7.635 -5.6475 6.645 -7.6875 5.625 C-6.02612914 1.79106724 -4.59035464 -0.6405146 0 0 Z " fill="#929291" transform="translate(149.6875,110.375)"/>
<path d="M0 0 C1.32 0 2.64 0 4 0 C4.28125 2.29296875 4.28125 2.29296875 4 5 C2.03125 6.80078125 2.03125 6.80078125 -0.5 8.3125 C-1.3353125 8.82425781 -2.170625 9.33601562 -3.03125 9.86328125 C-3.6809375 10.23839844 -4.330625 10.61351562 -5 11 C-5.66 9.68 -6.32 8.36 -7 7 C-6.21625 6.401875 -5.4325 5.80375 -4.625 5.1875 C-1.85425677 3.08914751 -1.85425677 3.08914751 0 0 Z " fill="#8C8D8B" transform="translate(265,216)"/>
<path d="M0 0 C0 1.32 0 2.64 0 4 C0.99 4.33 1.98 4.66 3 5 C1.68 5.33 0.36 5.66 -1 6 C-1 5.34 -1 4.68 -1 4 C-1.66 4 -2.32 4 -3 4 C-3 4.66 -3 5.32 -3 6 C-3.99 6.66 -4.98 7.32 -6 8 C-6.99 7.67 -7.98 7.34 -9 7 C-9.6875 4.9375 -9.6875 4.9375 -10 3 C-6.48812804 0.59185923 -4.27343092 -0.36629408 0 0 Z " fill="#969696" transform="translate(273,175)"/>
<path d="M0 0 C2.475 0.99 2.475 0.99 5 2 C5 3.98 5 5.96 5 8 C2.625 9.0625 2.625 9.0625 0 10 C-0.66 9.67 -1.32 9.34 -2 9 C-2.125 5.625 -2.125 5.625 -2 2 C-1.34 1.34 -0.68 0.68 0 0 Z " fill="#7E7E7A" transform="translate(332,292)"/>
<path d="M0 0 C3.3 0.99 6.6 1.98 10 3 C8.02 3.99 8.02 3.99 6 5 C4.73195434 7.0335948 4.73195434 7.0335948 4 9 C5.32 9.33 6.64 9.66 8 10 C7.01 10.495 7.01 10.495 6 11 C3.64018187 10.06421005 1.30368736 9.06652192 -1 8 C-0.67 5.36 -0.34 2.72 0 0 Z " fill="#878786" transform="translate(260,278)"/>
<path d="M0 0 C0.66 0.99 1.32 1.98 2 3 C1.67 3.99 1.34 4.98 1 6 C0.01 6.33 -0.98 6.66 -2 7 C-2 7.99 -2 8.98 -2 10 C-4.31 10 -6.62 10 -9 10 C-7.63842622 4.70499087 -4.39656045 2.76254467 0 0 Z " fill="#979896" transform="translate(186,350)"/>
<path d="M0 0 C0.33 0 0.66 0 1 0 C1 1.98 1 3.96 1 6 C2.32 6.33 3.64 6.66 5 7 C3.68 8.65 2.36 10.3 1 12 C0.34 11.34 -0.32 10.68 -1 10 C-1.99 9.67 -2.98 9.34 -4 9 C-4 9.66 -4 10.32 -4 11 C-4.66 10.67 -5.32 10.34 -6 10 C-5.67 9.01 -5.34 8.02 -5 7 C-4.34 7 -3.68 7 -3 7 C-2.87625 6.401875 -2.7525 5.80375 -2.625 5.1875 C-2 3 -2 3 0 0 Z " fill="#7C7C7A" transform="translate(318,254)"/>
<path d="M0 0 C0.99 0.33 1.98 0.66 3 1 C3 1.99 3 2.98 3 4 C4.423125 4.433125 4.423125 4.433125 5.875 4.875 C9 6 9 6 11 8 C5.58461538 10.21538462 5.58461538 10.21538462 2.625 9.125 C2.08875 8.75375 1.5525 8.3825 1 8 C1 7.34 1 6.68 1 6 C0.34 6 -0.32 6 -1 6 C-0.67 4.02 -0.34 2.04 0 0 Z " fill="#8F908F" transform="translate(219,289)"/>
<path d="M0 0 C0.66 0.33 1.32 0.66 2 1 C1.67 1.99 1.34 2.98 1 4 C2.65 4.33 4.3 4.66 6 5 C4.42932829 6.80627247 3.20700414 7.90943569 1 8.875 C-1 9 -1 9 -2.8125 7.8125 C-4 6 -4 6 -3.875 3.9375 C-3 2 -3 2 0 0 Z " fill="#7F7F7C" transform="translate(304,236)"/>
<path d="M0 0 C-0.33 2.31 -0.66 4.62 -1 7 C-1.33 6.01 -1.66 5.02 -2 4 C-3.423125 4.9590625 -3.423125 4.9590625 -4.875 5.9375 C-8 8 -8 8 -10 9 C-9.55090939 7.51800098 -9.09043436 6.03944764 -8.625 4.5625 C-8.36976563 3.73878906 -8.11453125 2.91507813 -7.8515625 2.06640625 C-6.17760825 -1.99562035 -3.68580708 -0.87295431 0 0 Z " fill="#7C7C7A" transform="translate(297,203)"/>
<path d="M0 0 C4.29 0 8.58 0 13 0 C12 5 12 5 10 8 C7.1796875 8.29296875 7.1796875 8.29296875 3.875 8.1875 C2.23144531 8.14689453 2.23144531 8.14689453 0.5546875 8.10546875 C-0.28835938 8.07066406 -1.13140625 8.03585937 -2 8 C-2 7.67 -2 7.34 -2 7 C1.3 7 4.6 7 8 7 C8.33 5.02 8.66 3.04 9 1 C6.03 1 3.06 1 0 1 C0 0.67 0 0.34 0 0 Z " fill="#71716F" transform="translate(280,284)"/>
<path d="M0 0 C0.66 0.66 1.32 1.32 2 2 C2.99 1.67 3.98 1.34 5 1 C5.33 1.99 5.66 2.98 6 4 C6.66 4.66 7.32 5.32 8 6 C7.01 8.31 6.02 10.62 5 13 C4.67 13 4.34 13 4 13 C4 11.35 4 9.7 4 8 C3.34 8 2.68 8 2 8 C1.34 7.01 0.68 6.02 0 5 C-0.99 5.495 -0.99 5.495 -2 6 C-1.34 4.02 -0.68 2.04 0 0 Z " fill="#7E7E7D" transform="translate(391,318)"/>
<path d="M0 0 C4.41889613 1.35021826 6.34345343 3.26115668 9 7 C6.36 7.33 3.72 7.66 1 8 C0.67 7.34 0.34 6.68 0 6 C-0.66 5.67 -1.32 5.34 -2 5 C-1.34 3.35 -0.68 1.7 0 0 Z " fill="#929290" transform="translate(319,185)"/>
<path d="M0 0 C1.32 0.66 2.64 1.32 4 2 C4 2.66 4 3.32 4 4 C4.66 4 5.32 4 6 4 C6 4.66 6 5.32 6 6 C6.66 6 7.32 6 8 6 C8 6.66 8 7.32 8 8 C9.32 8.66 10.64 9.32 12 10 C11.67 10.66 11.34 11.32 11 12 C10.34 11.34 9.68 10.68 9 10 C7.865625 9.525625 6.73125 9.05125 5.5625 8.5625 C0.49853659 6.34146341 0.49853659 6.34146341 -1 4 C-0.6875 1.8125 -0.6875 1.8125 0 0 Z " fill="#8B8B88" transform="translate(360,117)"/>
<path d="M0 0 C2.96175123 0.61277612 4.38058783 1.25372522 7 3 C7.66 3 8.32 3 9 3 C7.92598892 5.91517292 7.22189824 7.77810176 5 10 C0.76169024 7.17446016 1.02284652 4.87819112 0 0 Z " fill="#858683" transform="translate(365,292)"/>
<path d="M0 0 C1.32 0.33 2.64 0.66 4 1 C2.66511872 4.59391114 1.03977277 7.75490696 -1 11 C-2.32 10.34 -3.64 9.68 -5 9 C-3.50163895 5.88801935 -1.80066242 2.9465385 0 0 Z " fill="#838482" transform="translate(119,146)"/>
<path d="M0 0 C1.52519276 0.08937803 3.04681929 0.24537146 4.5625 0.4375 C5.80193359 0.59025391 5.80193359 0.59025391 7.06640625 0.74609375 C7.70449219 0.82988281 8.34257812 0.91367188 9 1 C8.25 3.4375 8.25 3.4375 7 6 C5.0625 6.9375 5.0625 6.9375 3 7 C0 5 0 5 -0.75 2.9375 C-0.8325 2.298125 -0.915 1.65875 -1 1 C-0.67 0.67 -0.34 0.34 0 0 Z " fill="#959796" transform="translate(369,134)"/>
<path d="M0 0 C2.6875 0.875 2.6875 0.875 5 2 C4.25 4.4375 4.25 4.4375 3 7 C1 7.9375 1 7.9375 -1 8 C-1.66 7.34 -2.32 6.68 -3 6 C-3 4.68 -3 3.36 -3 2 C-2.01 1.34 -1.02 0.68 0 0 Z " fill="#979896" transform="translate(251,272)"/>
<path d="M0 0 C0 0.66 0 1.32 0 2 C-0.66 2 -1.32 2 -2 2 C-2.66 3.32 -3.32 4.64 -4 6 C-5.32 6 -6.64 6 -8 6 C-8 5.34 -8 4.68 -8 4 C-8.66 3.67 -9.32 3.34 -10 3 C-8 0 -8 0 -6.125 -0.75 C-3.80466218 -1.02298092 -2.21024918 -0.71043724 0 0 Z " fill="#999A98" transform="translate(204,402)"/>
<path d="M0 0 C0 0.66 0 1.32 0 2 C0.66 2.33 1.32 2.66 2 3 C1.67 3.66 1.34 4.32 1 5 C2.65 5 4.3 5 6 5 C6.33 5.66 6.66 6.32 7 7 C5.8553125 6.938125 5.8553125 6.938125 4.6875 6.875 C1.77281584 6.77919176 1.77281584 6.77919176 -1 9 C-1.33 8.01 -1.66 7.02 -2 6 C-4.01508358 5.26676204 -4.01508358 5.26676204 -6 5 C-6 4.34 -6 3.68 -6 3 C-5.34 3 -4.68 3 -4 3 C-4 2.34 -4 1.68 -4 1 C-2 0 -2 0 0 0 Z " fill="#80817E" transform="translate(209,284)"/>
<path d="M0 0 C0.66 0.33 1.32 0.66 2 1 C0.515 3.475 0.515 3.475 -1 6 C2.465 5.505 2.465 5.505 6 5 C6 5.66 6 6.32 6 7 C4 8.625 4 8.625 2 10 C0.68 9.34 -0.64 8.68 -2 8 C-2 7.34 -2 6.68 -2 6 C-3.32 6.33 -4.64 6.66 -6 7 C-6 6.34 -6 5.68 -6 5 C-4.04072937 3.2856382 -2.04119788 1.61594832 0 0 Z " fill="#787877" transform="translate(250,184)"/>
<path d="M0 0 C2.625 -0.1875 2.625 -0.1875 5 0 C4.67 2.64 4.34 5.28 4 8 C1.36 7.67 -1.28 7.34 -4 7 C-2.79618552 4.50638429 -1.54571278 2.31856917 0 0 Z " fill="#9B9C9A" transform="translate(95,187)"/>
<path d="M0 0 C3.08089673 2.77280706 4.68775452 5.06326356 6 9 C5.030625 9.12375 4.06125 9.2475 3.0625 9.375 C2.051875 9.58125 1.04125 9.7875 0 10 C-0.33 10.66 -0.66 11.32 -1 12 C-1.33 11.01 -1.66 10.02 -2 9 C-1.34 9 -0.68 9 0 9 C-0.185625 7.88625 -0.37125 6.7725 -0.5625 5.625 C-1 2 -1 2 0 0 Z " fill="#7E7F7E" transform="translate(341,244)"/>
<path d="M0 0 C0.99 0 1.98 0 3 0 C3 3.96 3 7.92 3 12 C2.01 12.33 1.02 12.66 0 13 C-0.66 12.67 -1.32 12.34 -2 12 C-1.67 10.35 -1.34 8.7 -1 7 C-0.34 7 0.32 7 1 7 C0.67 4.69 0.34 2.38 0 0 Z " fill="#9C9E9C" transform="translate(217,237)"/>
<path d="M0 0 C0.66 0 1.32 0 2 0 C1.67 0.99 1.34 1.98 1 3 C0.34 3 -0.32 3 -1 3 C-1 4.65 -1 6.3 -1 8 C-0.34 7.67 0.32 7.34 1 7 C1.66 6.67 2.32 6.34 3 6 C3 7.32 3 8.64 3 10 C2.34 10 1.68 10 1 10 C1 10.66 1 11.32 1 12 C0.401875 11.690625 -0.19625 11.38125 -0.8125 11.0625 C-3.08956772 9.89790296 -3.08956772 9.89790296 -6 9 C-4.79618552 6.50638429 -3.54571278 4.31856917 -2 2 C-1.34 2 -0.68 2 0 2 C0 1.34 0 0.68 0 0 Z " fill="#7C7C7A" transform="translate(188,302)"/>
<path d="M0 0 C4.42857143 5.14285714 4.42857143 5.14285714 5 9 C2.6875 9.6875 2.6875 9.6875 0 10 C-1.8125 8.5625 -1.8125 8.5625 -3 7 C-2.67 6.34 -2.34 5.68 -2 5 C-1.34 5 -0.68 5 0 5 C-0.33 4.01 -0.66 3.02 -1 2 C-0.67 1.34 -0.34 0.68 0 0 Z " fill="#9A9B9B" transform="translate(380,140)"/>
<path d="M0 0 C1.9375 0.6875 1.9375 0.6875 4 2 C4.75 4.625 4.75 4.625 5 7 C3.02 7.33 1.04 7.66 -1 8 C-1.625 5.125 -1.625 5.125 -2 2 C-1.34 1.34 -0.68 0.68 0 0 Z " fill="#9A9B9B" transform="translate(173,389)"/>
<path d="M0 0 C-0.33 0.66 -0.66 1.32 -1 2 C-1.99 2 -2.98 2 -4 2 C-4 3.32 -4 4.64 -4 6 C-3.34 6.33 -2.68 6.66 -2 7 C-2 7.66 -2 8.32 -2 9 C-5.37503669 7.8141763 -7.64722731 6.72426311 -10 4 C-9.34 4 -8.68 4 -8 4 C-8 3.34 -8 2.68 -8 2 C-7.34 2 -6.68 2 -6 2 C-6 1.34 -6 0.68 -6 0 C-2.25 -1.125 -2.25 -1.125 0 0 Z " fill="#7A7A78" transform="translate(257,229)"/>
<path d="M0 0 C1.98 0.495 1.98 0.495 4 1 C4.75 2.75 4.75 2.75 5 5 C3.0625 7.25 3.0625 7.25 1 9 C0.34 8.67 -0.32 8.34 -1 8 C-1.125 2.25 -1.125 2.25 0 0 Z " fill="#969696" transform="translate(333,202)"/>
<path d="M0 0 C1.36125 0.37125 1.36125 0.37125 2.75 0.75 C1.75 3.75 1.75 3.75 -0.5625 5.0625 C-3.25 5.75 -3.25 5.75 -5.5625 4.875 C-6.119375 4.50375 -6.67625 4.1325 -7.25 3.75 C-4.05 -0.31153846 -4.05 -0.31153846 0 0 Z " fill="#9B9B99" transform="translate(304.25,161.25)"/>
<path d="M0 0 C0.99 0.33 1.98 0.66 3 1 C2.42655063 3.86724686 2.1385485 4.8614515 0 7 C-2.625 6.625 -2.625 6.625 -5 6 C-2.25 1.125 -2.25 1.125 0 0 Z " fill="#999A99" transform="translate(271,297)"/>
<path d="M0 0 C1.41684067 2.83368135 1.10730883 4.6244191 0.25 7.625 C-1 10 -1 10 -2.9375 10.6875 C-3.618125 10.790625 -4.29875 10.89375 -5 11 C-5.99 11.66 -6.98 12.32 -8 13 C-6.53181332 9.89257577 -4.79975 7.09528261 -2.875 4.25 C-2.33617188 3.45078125 -1.79734375 2.6515625 -1.2421875 1.828125 C-0.62730469 0.92320312 -0.62730469 0.92320312 0 0 Z " fill="#7F807F" transform="translate(116,142)"/>
<path d="M0 0 C0.66 0.33 1.32 0.66 2 1 C1.401875 1.2475 0.80375 1.495 0.1875 1.75 C-2.29754739 3.17002708 -3.31362486 4.72705959 -5 7 C-8 8 -8 8 -10.1875 7.0625 C-10.785625 6.711875 -11.38375 6.36125 -12 6 C-10.04669132 4.96958487 -8.08718472 3.9509107 -6.125 2.9375 C-5.03445312 2.36902344 -3.94390625 1.80054687 -2.8203125 1.21484375 C-1.42425781 0.61349609 -1.42425781 0.61349609 0 0 Z " fill="#818280" transform="translate(187,86)"/>
<path d="M0 0 C0.66 1.32 1.32 2.64 2 4 C-0.97 4.66 -3.94 5.32 -7 6 C-6.67 4.35 -6.34 2.7 -6 1 C-3 0 -3 0 0 0 Z " fill="#8E8F8D" transform="translate(248,190)"/>
<path d="M0 0 C0.33 0.66 0.66 1.32 1 2 C1.66 2 2.32 2 3 2 C2.67 2.99 2.34 3.98 2 5 C0.68 4.67 -0.64 4.34 -2 4 C-2.99 5.32 -3.98 6.64 -5 8 C-6.32 6.02 -7.64 4.04 -9 2 C-8.2575 2.226875 -7.515 2.45375 -6.75 2.6875 C-3.94085007 3.29476698 -3.94085007 3.29476698 -1.6875 1.5625 C-1.130625 1.046875 -0.57375 0.53125 0 0 Z " fill="#848483" transform="translate(124,345)"/>
<path d="M0 0 C1.98 0.66 3.96 1.32 6 2 C5.01 2.495 5.01 2.495 4 3 C3.34444881 5.52733235 3.34444881 5.52733235 3 8 C2.01 8.33 1.02 8.66 0 9 C0 6.03 0 3.06 0 0 Z " fill="#909290" transform="translate(89,286)"/>
<path d="M0 0 C3.26954202 0.56371414 4.82575883 1.49962266 7 4 C6.67 4.99 6.34 5.98 6 7 C4.35 7 2.7 7 1 7 C1 4 1 4 2 2 C1.34 2 0.68 2 0 2 C0 1.34 0 0.68 0 0 Z " fill="#959595" transform="translate(160,101)"/>
<path d="M0 0 C0.66 0 1.32 0 2 0 C2.59732819 2.76264289 3 5.16032769 3 8 C2.34 8 1.68 8 1 8 C1 8.66 1 9.32 1 10 C0.01 10 -0.98 10 -2 10 C-2.17942163 6.05272412 -2.09350689 3.4019487 0 0 Z " fill="#999B9A" transform="translate(406,191)"/>
<path d="M0 0 C0.66 0.33 1.32 0.66 2 1 C2.125 3.375 2.125 3.375 2 6 C0 8 0 8 -3.2578125 8.1953125 C-4.53398437 8.17210937 -5.81015625 8.14890625 -7.125 8.125 C-9.04699219 8.09792969 -9.04699219 8.09792969 -11.0078125 8.0703125 C-12.48894531 8.03550781 -12.48894531 8.03550781 -14 8 C-14 7.67 -14 7.34 -14 7 C-10.37 7 -6.74 7 -3 7 C-3 6.34 -3 5.68 -3 5 C-2.01 4.67 -1.02 4.34 0 4 C0 2.68 0 1.36 0 0 Z " fill="#797977" transform="translate(199,209)"/>
<path d="M0 0 C0.93423645 3.01031744 1.04449911 3.86650268 0 7 C-1.65 6.67 -3.3 6.34 -5 6 C-4.67 4.35 -4.34 2.7 -4 1 C-2.68 0.67 -1.36 0.34 0 0 Z " fill="#9A9B9A" transform="translate(310,234)"/>
<path d="M0 0 C0.33 1.32 0.66 2.64 1 4 C-1.64 4.33 -4.28 4.66 -7 5 C-7.33 3.68 -7.66 2.36 -8 1 C-4.93251126 -0.86240388 -3.40254489 -1.2151946 0 0 Z " fill="#919291" transform="translate(402,173)"/>
<path d="M0 0 C-2.55991624 2.01136276 -5.04590299 3.62845496 -8 5 C-8.66 3.68 -9.32 2.36 -10 1 C-6.42181037 -1.33958553 -4.07775191 -0.9267618 0 0 Z " fill="#8B8B8A" transform="translate(176,352)"/>
<path d="M0 0 C0.99 0.99 1.98 1.98 3 3 C2.67 3.66 2.34 4.32 2 5 C1.34 5 0.68 5 0 5 C-0.66 6.32 -1.32 7.64 -2 9 C-3.32 7.35 -4.64 5.7 -6 4 C-4.68 4.33 -3.36 4.66 -2 5 C-1.34 3.35 -0.68 1.7 0 0 Z " fill="#7B7B7A" transform="translate(245,265)"/>
<path d="M0 0 C2.0625 0.4375 2.0625 0.4375 4 1 C3.67 2.98 3.34 4.96 3 7 C1.68 7 0.36 7 -1 7 C-1.04254356 5.00045254 -1.04080783 2.99958364 -1 1 C-0.67 0.67 -0.34 0.34 0 0 Z " fill="#9A9B99" transform="translate(320,253)"/>
<path d="M0 0 C2.36678851 2.06139645 3.8281942 3.50912627 4.875 6.5 C5.01723281 9.34465628 4.34022497 10.54811556 3 13 C2.49242138 11.58603098 1.99425075 10.16868271 1.5 8.75 C1.08234375 7.56664062 1.08234375 7.56664062 0.65625 6.359375 C0 4 0 4 0 0 Z " fill="#7C7D7B" transform="translate(228,243)"/>
<path d="M0 0 C1.65 0.33 3.3 0.66 5 1 C5 1.66 5 2.32 5 3 C3.03852126 4.38938077 1.03833424 5.7260411 -1 7 C-1.33 5.35 -1.66 3.7 -2 2 C-1.34 2 -0.68 2 0 2 C0 1.34 0 0.68 0 0 Z " fill="#999998" transform="translate(314,263)"/>
<path d="M0 0 C1.32 0.99 2.64 1.98 4 3 C3.2884375 3.6496875 3.2884375 3.6496875 2.5625 4.3125 C0.76313043 6.02309613 0.76313043 6.02309613 0 9 C-0.66 9 -1.32 9 -2 9 C-2 8.34 -2 7.68 -2 7 C-2.66 6.67 -3.32 6.34 -4 6 C-3.34 6 -2.68 6 -2 6 C-1.7834375 5.071875 -1.7834375 5.071875 -1.5625 4.125 C-1 2 -1 2 0 0 Z " fill="#818180" transform="translate(317,182)"/>
<path d="M0 0 C0.66 0 1.32 0 2 0 C1.67 2.97 1.34 5.94 1 9 C-0.32 9 -1.64 9 -3 9 C-2.67 7.35 -2.34 5.7 -2 4 C-1.01 3.67 -0.02 3.34 1 3 C0.67 2.01 0.34 1.02 0 0 Z " fill="#989997" transform="translate(180,312)"/>
<path d="M0 0 C3.3 0.99 6.6 1.98 10 3 C6 5 6 5 2.75 4.125 C1.8425 3.75375 0.935 3.3825 0 3 C0 2.01 0 1.02 0 0 Z M0 4 C0 7 0 7 0 7 Z " fill="#797A78" transform="translate(260,278)"/>
<path d="M0 0 C0.33 0 0.66 0 1 0 C1.33 4.95 1.66 9.9 2 15 C0.68 13.68 -0.64 12.36 -2 11 C-1.953125 8.203125 -1.953125 8.203125 -1.25 5.25 C-1.02828125 4.26515625 -0.8065625 3.2803125 -0.578125 2.265625 C-0.38734375 1.51796875 -0.1965625 0.7703125 0 0 Z " fill="#6D706D" transform="translate(91,257)"/>
<path d="M0 0 C0.33 0.66 0.66 1.32 1 2 C-0.92333011 6.06036357 -3.40069448 8.37347975 -7 11 C-7 7.22089522 -6.00296038 6.53893899 -3.5 3.8125 C-2.8503125 3.09707031 -2.200625 2.38164062 -1.53125 1.64453125 C-1.0259375 1.10183594 -0.520625 0.55914062 0 0 Z " fill="#6B6B6A" transform="translate(234,179)"/>
<path d="M0 0 C1.98 0.99 3.96 1.98 6 3 C2.55549263 5.29633824 0.06187717 5.54016485 -4 6 C-2.84826645 3.53199953 -1.95216435 1.95216435 0 0 Z " fill="#888988" transform="translate(218,81)"/>
<path d="M0 0 C2 1 2 1 2.8515625 3.28515625 C3.10679688 4.20167969 3.36203125 5.11820312 3.625 6.0625 C3.88539062 6.98160156 4.14578125 7.90070313 4.4140625 8.84765625 C4.60742188 9.55792969 4.80078125 10.26820313 5 11 C3.02 9.68 1.04 8.36 -1 7 C-0.7525 6.1028125 -0.7525 6.1028125 -0.5 5.1875 C0.1114124 2.88655664 0.1114124 2.88655664 0 0 Z " fill="#757673" transform="translate(101,304)"/>
<path d="M0 0 C0.99 0.66 1.98 1.32 3 2 C2.34 3.65 1.68 5.3 1 7 C-0.32 6.67 -1.64 6.34 -3 6 C-2.625 3.5625 -2.625 3.5625 -2 1 C-1.34 0.67 -0.68 0.34 0 0 Z " fill="#9B9C9A" transform="translate(189,304)"/>
<path d="M0 0 C0.66 0 1.32 0 2 0 C2.33 1.32 2.66 2.64 3 4 C2.01 4.33 1.02 4.66 0 5 C0 5.66 0 6.32 0 7 C-0.66 6.67 -1.32 6.34 -2 6 C-1.67 5.34 -1.34 4.68 -1 4 C-2.32 4.33 -3.64 4.66 -5 5 C-4.67 4.01 -4.34 3.02 -4 2 C-3.01 2.33 -2.02 2.66 -1 3 C-0.67 2.01 -0.34 1.02 0 0 Z " fill="#9D9D9C" transform="translate(331,97)"/>
<path d="M0 0 C0.66 0 1.32 0 2 0 C2 0.66 2 1.32 2 2 C4.475 2.99 4.475 2.99 7 4 C6.01 4.33 5.02 4.66 4 5 C3.67 5.66 3.34 6.32 3 7 C1.68 5.68 0.36 4.36 -1 3 C-0.67 2.01 -0.34 1.02 0 0 Z " fill="#878785" transform="translate(151,373)"/>
<path d="M0 0 C0.66 0.33 1.32 0.66 2 1 C0.70700306 3.88437779 -0.65941363 5.87219421 -3 8 C-3.66 7.34 -4.32 6.68 -5 6 C-3.63016497 2.83884224 -3.0109362 2.0072908 0 0 Z " fill="#838583" transform="translate(382,346)"/>
<path d="M0 0 C3 3.625 3 3.625 3 7 C2.01 7.33 1.02 7.66 0 8 C-2 5 -2 5 -1.6875 2.875 C-1 1 -1 1 0 0 Z " fill="#9A9C9B" transform="translate(282,231)"/>
<path d="M0 0 C0.99 0.33 1.98 0.66 3 1 C3.38218767 2.65614657 3.71395102 4.32457024 4 6 C3.67 6.33 3.34 6.66 3 7 C2.95907063 9.33297433 2.95758277 11.66705225 3 14 C2.67 14 2.34 14 2 14 C1.66179834 12.4176994 1.32964061 10.83410625 1 9.25 C0.814375 8.36828125 0.62875 7.4865625 0.4375 6.578125 C0 4 0 4 0 0 Z " fill="#7E7F7D" transform="translate(402,197)"/>
<path d="M0 0 C0.33 0.66 0.66 1.32 1 2 C0.34 2 -0.32 2 -1 2 C-1.33 2.99 -1.66 3.98 -2 5 C-1.34 5.66 -0.68 6.32 0 7 C-0.99 7 -1.98 7 -3 7 C-3.33 7.66 -3.66 8.32 -4 9 C-4.99 8.01 -5.98 7.02 -7 6 C-5.625 4.5 -5.625 4.5 -4 3 C-3.34 3 -2.68 3 -2 3 C-2 2.34 -2 1.68 -2 1 C-1.34 0.67 -0.68 0.34 0 0 Z " fill="#6B6B6B" transform="translate(242,172)"/>
<path d="M0 0 C0.66 0 1.32 0 2 0 C2.625 2.375 2.625 2.375 3 5 C2.34 5.66 1.68 6.32 1 7 C1 6.34 1 5.68 1 5 C0.34 5 -0.32 5 -1 5 C-1.33 5.66 -1.66 6.32 -2 7 C-2.125 4.625 -2.125 4.625 -2 2 C-1.34 1.34 -0.68 0.68 0 0 Z " fill="#848483" transform="translate(332,292)"/>
<path d="M0 0 C3.465 1.485 3.465 1.485 7 3 C4.35261084 4.4606285 3.10551666 5 0 5 C-0.5625 3.0625 -0.5625 3.0625 -1 1 C-0.67 0.67 -0.34 0.34 0 0 Z " fill="#9A9A99" transform="translate(223,293)"/>
<path d="M0 0 C0.66 0 1.32 0 2 0 C1.67 1.98 1.34 3.96 1 6 C-0.32 6 -1.64 6 -3 6 C-3 5.34 -3 4.68 -3 4 C-3.66 3.67 -4.32 3.34 -5 3 C-3.35 2.67 -1.7 2.34 0 2 C0 1.34 0 0.68 0 0 Z " fill="#999998" transform="translate(311,272)"/>
<path d="M0 0 C6.75 0.75 6.75 0.75 9 3 C5.67465243 4.10844919 3.37817425 3.84454356 0 3 C0 2.01 0 1.02 0 0 Z " fill="#717171" transform="translate(331,240)"/>
<path d="M0 0 C1.485 0.99 1.485 0.99 3 2 C3 3.32 3 4.64 3 6 C3.66 6 4.32 6 5 6 C5 6.66 5 7.32 5 8 C2.83125748 7.49396008 1.00032373 7.00016187 -1 6 C-1.042721 4.33388095 -1.04063832 2.66617115 -1 1 C-0.67 0.67 -0.34 0.34 0 0 Z " fill="#9A9C9A" transform="translate(253,230)"/>
<path d="M0 0 C0.99 0.33 1.98 0.66 3 1 C2.42655063 3.86724686 2.1385485 4.8614515 0 7 C-0.99 6.01 -1.98 5.02 -3 4 C-2.01 2.68 -1.02 1.36 0 0 Z " fill="#999A9A" transform="translate(323,170)"/>
<path d="M0 0 C2.625 0.9375 2.625 0.9375 5 2 C3.6875 4 3.6875 4 2 6 C1.01 6 0.02 6 -1 6 C-1.33 4.35 -1.66 2.7 -2 1 C-1.34 0.67 -0.68 0.34 0 0 Z " fill="#878785" transform="translate(328,94)"/>
<path d="M0 0 C0.99 1.32 1.98 2.64 3 4 C2.01 4.33 1.02 4.66 0 5 C0 5.99 0 6.98 0 8 C-1.65 8.33 -3.3 8.66 -5 9 C-3.35 6.03 -1.7 3.06 0 0 Z " fill="#777876" transform="translate(380,337)"/>
<path d="M0 0 C0.66 0.33 1.32 0.66 2 1 C1.49396008 3.16874252 1.00016187 4.99967627 0 7 C-0.66 7 -1.32 7 -2 7 C-2 6.34 -2 5.68 -2 5 C-2.66 4.34 -3.32 3.68 -4 3 C-2.68 2.01 -1.36 1.02 0 0 Z " fill="#9D9E9D" transform="translate(238,256)"/>
<path d="M0 0 C0.66 0.66 1.32 1.32 2 2 C1.625 4.125 1.625 4.125 1 6 C1 5.34 1 4.68 1 4 C-1.475 5.485 -1.475 5.485 -4 7 C-4 5.35 -4 3.7 -4 2 C-2.68 1.34 -1.36 0.68 0 0 Z " fill="#999C9A" transform="translate(232,221)"/>
<path d="M0 0 C0.66 0.33 1.32 0.66 2 1 C1.67 2.65 1.34 4.3 1 6 C-1.31 6.33 -3.62 6.66 -6 7 C-6 6.34 -6 5.68 -6 5 C-4.68 5 -3.36 5 -2 5 C-2 4.34 -2 3.68 -2 3 C-1.34 2.67 -0.68 2.34 0 2 C0 1.34 0 0.68 0 0 Z " fill="#6F6F6D" transform="translate(153,183)"/>
<path d="M0 0 C1.875 0.3125 1.875 0.3125 4 1 C4.66 1.99 5.32 2.98 6 4 C5.34 4.66 4.68 5.32 4 6 C3.34 6 2.68 6 2 6 C1.34 4.02 0.68 2.04 0 0 Z " fill="#9B9B9A" transform="translate(365,292)"/>
<path d="M0 0 C1.06546953 3.1964086 1.07427838 5.65747276 1 9 C0.01 8.67 -0.98 8.34 -2 8 C-2.125 5.125 -2.125 5.125 -2 2 C-1.34 1.34 -0.68 0.68 0 0 Z " fill="#959694" transform="translate(340,244)"/>
<path d="M0 0 C2.05078125 0.03255208 4.1015625 0.06510417 6.15234375 0.09765625 C6.15234375 0.42765625 6.15234375 0.75765625 6.15234375 1.09765625 C3.84234375 1.75765625 1.53234375 2.41765625 -0.84765625 3.09765625 C-0.84765625 4.08765625 -0.84765625 5.07765625 -0.84765625 6.09765625 C-1.83765625 6.09765625 -2.82765625 6.09765625 -3.84765625 6.09765625 C-2.77957394 0.14691194 -2.77957394 0.14691194 0 0 Z " fill="#757573" transform="translate(132.84765625,235.90234375)"/>
<path d="M0 0 C2.475 0.99 2.475 0.99 5 2 C4.67 2.99 4.34 3.98 4 5 C2.68 5 1.36 5 0 5 C-0.5625 3.0625 -0.5625 3.0625 -1 1 C-0.67 0.67 -0.34 0.34 0 0 Z " fill="#8A8C89" transform="translate(256,231)"/>
<path d="M0 0 C0.66 0.33 1.32 0.66 2 1 C1.01 3.97 0.02 6.94 -1 10 C-3 6 -3 6 -2.625 3.75 C-2.41875 3.1725 -2.2125 2.595 -2 2 C-1.34 2.33 -0.68 2.66 0 3 C0 2.01 0 1.02 0 0 Z " fill="#70716F" transform="translate(287,229)"/>
<path d="M0 0 C0.66 0.33 1.32 0.66 2 1 C1.34 3.64 0.68 6.28 0 9 C-1.32 7.35 -2.64 5.7 -4 4 C-3.67 3.34 -3.34 2.68 -3 2 C-2.01 2 -1.02 2 0 2 C0 1.34 0 0.68 0 0 Z " fill="#7E7F7D" transform="translate(332,201)"/>
<path d="M0 0 C1.65 0 3.3 0 5 0 C5.33 0.99 5.66 1.98 6 3 C5.01 3 4.02 3 3 3 C3 3.66 3 4.32 3 5 C2.01 4.67 1.02 4.34 0 4 C-0.33 3.34 -0.66 2.68 -1 2 C-0.67 1.34 -0.34 0.68 0 0 Z " fill="#9D9D9B" transform="translate(148,183)"/>
<path d="M0 0 C0.66 0.33 1.32 0.66 2 1 C2 1.66 2 2.32 2 3 C2.66 3.66 3.32 4.32 4 5 C1.69 5.33 -0.62 5.66 -3 6 C-3 5.01 -3 4.02 -3 3 C-2.01 3 -1.02 3 0 3 C0 2.01 0 1.02 0 0 Z " fill="#858684" transform="translate(299,404)"/>
<path d="M0 0 C0.66 0.33 1.32 0.66 2 1 C2 2.32 2 3.64 2 5 C1.34 5 0.68 5 0 5 C-0.33 5.66 -0.66 6.32 -1 7 C-1.66 6.67 -2.32 6.34 -3 6 C-3 3 -3 3 -1.5 1.3125 C-0.7575 0.6628125 -0.7575 0.6628125 0 0 Z " fill="#919392" transform="translate(216,239)"/>
<path d="M0 0 C1.98 0.99 1.98 0.99 4 2 C4 3.98 4 5.96 4 8 C3.01 8.495 3.01 8.495 2 9 C1.34 6.03 0.68 3.06 0 0 Z " fill="#9E9E9F" transform="translate(339,223)"/>
<path d="M0 0 C0.66 0 1.32 0 2 0 C1.67 1.32 1.34 2.64 1 4 C1.66 4.33 2.32 4.66 3 5 C1.02 5.33 -0.96 5.66 -3 6 C-2.42655063 3.13275314 -2.1385485 2.1385485 0 0 Z " fill="#9A9B99" transform="translate(252,184)"/>
<path d="M0 0 C0.66 0 1.32 0 2 0 C1.60196439 2.88575819 1.20990931 3.82189513 -1.0625 5.75 C-1.701875 6.1625 -2.34125 6.575 -3 7 C-3.33 6.01 -3.66 5.02 -4 4 C-3.67 3.34 -3.34 2.68 -3 2 C-2.01 2 -1.02 2 0 2 C0 1.34 0 0.68 0 0 Z " fill="#818181" transform="translate(239,181)"/>
<path d="M0 0 C2.475 0.495 2.475 0.495 5 1 C5.33 2.32 5.66 3.64 6 5 C4.02 4.01 2.04 3.02 0 2 C0 1.34 0 0.68 0 0 Z M-2 3 C-1.01 3.33 -0.02 3.66 1 4 C0.01 4 -0.98 4 -2 4 C-2 3.67 -2 3.34 -2 3 Z " fill="#9B9C9A" transform="translate(100,313)"/>
<path d="M0 0 C1.32 0.66 2.64 1.32 4 2 C3.33333333 3.33333333 2.66666667 4.66666667 2 6 C1.01 5.67 0.02 5.34 -1 5 C-0.67 3.35 -0.34 1.7 0 0 Z " fill="#9A9C9B" transform="translate(86,269)"/>
<path d="M0 0 C0.33 0 0.66 0 1 0 C1 1.65 1 3.3 1 5 C-0.65 5.33 -2.3 5.66 -4 6 C-3.67 4.68 -3.34 3.36 -3 2 C-2.01 2 -1.02 2 0 2 C0 1.34 0 0.68 0 0 Z " fill="#858582" transform="translate(268,216)"/>
<path d="M0 0 C-1.65 1.65 -3.3 3.3 -5 5 C-5.33 3.35 -5.66 1.7 -6 0 C-3 -1 -3 -1 0 0 Z " fill="#797A78" transform="translate(250,195)"/>
<path d="M0 0 C0.99 0.66 1.98 1.32 3 2 C2.34 3.32 1.68 4.64 1 6 C0.34 5.67 -0.32 5.34 -1 5 C-1 4.34 -1 3.68 -1 3 C-1.66 3 -2.32 3 -3 3 C-2 1 -2 1 0 0 Z " fill="#828483" transform="translate(374,139)"/>
<path d="M0 0 C1.32 0.33 2.64 0.66 4 1 C4 1.66 4 2.32 4 3 C5.32 3.66 6.64 4.32 8 5 C7.67 5.66 7.34 6.32 7 7 C6.34 6.34 5.68 5.68 5 5 C2.93125966 4.3574765 2.93125966 4.3574765 1 4 C0.67 2.68 0.34 1.36 0 0 Z " fill="#787876" transform="translate(364,122)"/>
<path d="M0 0 C-0.33 0.99 -0.66 1.98 -1 3 C-4.5625 4.1875 -4.5625 4.1875 -8 5 C-3.375 0 -3.375 0 0 0 Z " fill="#848482" transform="translate(159,103)"/>
<path d="M0 0 C0.66 0 1.32 0 2 0 C2 1.32 2 2.64 2 4 C-0.60582371 4.93065133 -1.64198224 5.14917407 -4.25 4.0625 C-4.8275 3.711875 -5.405 3.36125 -6 3 C-5.195625 2.690625 -4.39125 2.38125 -3.5625 2.0625 C-1.10919595 1.23664655 -1.10919595 1.23664655 0 0 Z " fill="#9B9B9A" transform="translate(133,358)"/>
<path d="M0 0 C0.33 0.66 0.66 1.32 1 2 C-0.32 3.65 -1.64 5.3 -3 7 C-3.99 6.67 -4.98 6.34 -6 6 C-2.25 1.125 -2.25 1.125 0 0 Z " fill="#82827F" transform="translate(196,295)"/>
<path d="M0 0 C0.66 1.32 1.32 2.64 2 4 C1.01 4.99 0.02 5.98 -1 7 C-2 6 -2 6 -2.0625 3.4375 C-2.041875 2.633125 -2.02125 1.82875 -2 1 C-1.34 0.67 -0.68 0.34 0 0 Z " fill="#8E908E" transform="translate(230,217)"/>
<path d="M0 0 C1.65 0 3.3 0 5 0 C4.34 1.32 3.68 2.64 3 4 C3.66 4 4.32 4 5 4 C5 4.99 5 5.98 5 7 C4.01 6.67 3.02 6.34 2 6 C0.8125 2.9375 0.8125 2.9375 0 0 Z " fill="#9C9C9B" transform="translate(216,211)"/>
<path d="M0 0 C1.67542976 0.28604898 3.34385343 0.61781233 5 1 C5 1.66 5 2.32 5 3 C3.35 3.66 1.7 4.32 0 5 C-0.5625 3.0625 -0.5625 3.0625 -1 1 C-0.67 0.67 -0.34 0.34 0 0 Z " fill="#828281" transform="translate(275,253)"/>
<path d="M0 0 C2.5 2.3125 2.5 2.3125 5 5 C5 5.99 5 6.98 5 8 C2.21611025 6.29374499 1.14615794 5.52373261 0.25 2.3125 C0.1675 1.549375 0.085 0.78625 0 0 Z " fill="#6E6D6B" transform="translate(381,140)"/>
<path d="M0 0 C0 1.65 0 3.3 0 5 C-0.99 5.495 -0.99 5.495 -2 6 C-2.33 5.34 -2.66 4.68 -3 4 C-3.99 3.34 -4.98 2.68 -6 2 C-3 0 -3 0 0 0 Z " fill="#7D7D7C" transform="translate(166,98)"/>
</svg>
