<svg width="24" height="24" viewBox="0 0 24 24" fill="none" xmlns="http://www.w3.org/2000/svg">
<g clip-path="url(#clip0_26323_3726)">
<path d="M11.3982 0.221802C11.4017 0.221318 11.4052 0.220835 11.4087 0.220351C14.2167 0.0355325 17.1108 1.07679 19.2241 2.80242C21.6397 4.80021 23.167 7.67231 23.4729 10.792C23.7935 13.9388 22.852 17.0842 20.855 19.5373C19.1216 21.6539 16.6936 23.087 14.0029 23.5817C13.6357 23.6496 13.1583 23.6916 12.7802 23.7291C12.7632 23.731 12.7463 23.7324 12.7293 23.7338C12.1485 23.7816 11.4737 23.7439 10.8961 23.6782C8.59933 23.4276 6.43241 22.487 4.68095 20.9803C2.33098 18.9904 0.851272 15.993 0.606029 12.9315C0.408669 10.227 1.11988 7.53392 2.62689 5.27946C4.64068 2.27685 7.81616 0.514976 11.3982 0.221802ZM12.1872 23.2359C12.7602 23.2081 13.3111 23.1834 13.8768 23.0848C16.2341 22.6739 18.3463 21.4717 19.9808 19.7353C24.3267 15.1181 23.9475 7.73248 19.2599 3.50313C17.4493 1.8778 15.1465 0.905864 12.719 0.742472C12.5004 0.729275 12.1366 0.704077 11.9177 0.711708C11.904 0.712313 11.8904 0.713239 11.8768 0.714483C11.6751 0.725173 11.4692 0.732795 11.2682 0.748831C8.5574 0.965014 5.87284 2.27814 4.06274 4.29213C1.99815 6.5715 0.929413 9.58106 1.09401 12.6521C1.27577 15.6654 2.64578 18.4836 4.90328 20.4879C6.66233 22.0577 8.88571 23.0104 11.2356 23.2012C11.491 23.2195 11.884 23.253 12.1352 23.2397C12.1526 23.2388 12.1699 23.2375 12.1872 23.2359Z" fill="#9B9A9B"/>
<path d="M14.4321 6.00851C14.6412 6.0038 14.9533 6.02335 15.1585 6.05248C16.4922 6.24575 17.6937 6.96286 18.4969 8.04495C19.1618 8.93527 19.4812 10.0159 19.4984 11.1179C19.5019 11.3412 19.3908 12.4431 19.2329 12.5606C18.8244 12.4582 19.0518 11.5156 19.0626 11.2156C19.1445 8.93872 17.5274 6.86168 15.2553 6.49163C12.6394 6.06558 10.2752 7.96072 9.97305 10.5649C9.83901 11.7206 10.1747 12.9201 10.8618 13.8557C11.4656 14.6756 12.6024 15.4811 13.6278 15.62C13.9213 15.67 14.209 15.7212 14.5073 15.7223C14.483 15.8885 14.4843 15.9537 14.49 16.1209C14.4689 16.1226 14.4477 16.124 14.4266 16.1251C13.5457 16.169 12.208 15.7019 11.5518 15.1028C11.3524 15.328 11.1204 15.5269 10.9311 15.7676C10.9996 16.1421 11.0173 16.303 10.748 16.6044C10.5599 16.815 10.3621 17.0101 10.1637 17.2115L9.08753 18.2995C8.6369 18.7554 8.17071 19.2634 7.6893 19.669C7.27148 19.9256 6.77531 19.8889 6.40546 19.5644C5.06097 18.3846 6.16178 17.6764 7.00544 16.8329L8.27493 15.561C8.53938 15.2945 8.88346 14.9136 9.18679 14.7004C9.37403 14.5687 9.68418 14.6393 9.89296 14.6904C10.0479 14.5282 10.3431 14.212 10.5159 14.089C9.89217 13.2665 9.58366 12.3211 9.53871 11.2973C9.48096 9.93134 9.96693 8.59817 10.8902 7.58982C11.8011 6.59621 13.0986 6.06706 14.4321 6.00851ZM7.31437 19.4303C7.39851 19.3957 7.46629 19.3509 7.53131 19.2872C8.52039 18.3172 9.48154 17.3181 10.4653 16.3423C10.5004 16.3075 10.5256 16.2504 10.5442 16.2056C10.5639 16.1576 10.5823 16.1092 10.5993 16.0602C10.4424 15.7312 9.93869 15.319 9.66719 15.0631C9.60023 15 9.53885 14.9934 9.44988 14.9951C9.25687 15.1282 9.05582 15.35 8.88625 15.519L7.87202 16.5445C7.53189 16.8792 7.19444 17.2166 6.85971 17.5567C6.52359 17.8945 5.89687 18.3573 6.30707 18.8665C6.64047 19.2804 6.79021 19.4567 7.31437 19.4303ZM10.1598 14.9451C10.2223 15.0316 10.5949 15.4427 10.6708 15.4794L11.251 14.8823C11.1437 14.7854 10.7888 14.4035 10.7299 14.3603C10.5422 14.551 10.3403 14.7493 10.1598 14.9451Z" fill="#9B9A9B"/>
<path d="M17.7553 11.7032C17.9244 11.702 18.1462 11.7401 18.273 11.8621C18.5145 12.0946 20.4474 15.2476 20.6437 15.6654C20.6963 15.7772 20.7233 15.9168 20.7247 16.0399C20.727 16.2324 20.6099 16.4398 20.4771 16.5736C20.3939 16.6576 20.3093 16.7039 20.1943 16.7318C19.8587 16.8132 19.4788 16.7814 19.1347 16.7812L17.8242 16.7789C17.3195 16.7767 15.5003 16.8694 15.1789 16.6415C15.014 16.5246 14.8839 16.3359 14.8518 16.135C14.8314 16.0077 14.8389 15.8692 14.8902 15.7498C14.9813 15.5377 15.1224 15.3378 15.2435 15.1415L15.8711 14.1291L16.7246 12.7515C16.8865 12.4905 17.0463 12.2247 17.2195 11.9709C17.3626 11.7613 17.5198 11.7421 17.7553 11.7032ZM15.4909 16.381C16.2388 16.4114 17.0904 16.393 17.8414 16.391L19.2101 16.3952C19.6974 16.3961 20.6885 16.5065 20.2009 15.6795C19.553 14.5807 18.8665 13.5013 18.1965 12.4155C18.0837 12.2327 17.9957 12.0926 17.7732 12.0707C17.4712 12.179 17.3957 12.4169 17.2336 12.6819L16.6954 13.5517L15.8268 14.9535C15.6375 15.2556 15.4324 15.5559 15.271 15.8729C15.1592 16.0927 15.3237 16.2618 15.4909 16.381Z" fill="#9B9A9B"/>
<path d="M17.7124 13.1875C17.968 13.2037 18.0618 13.3006 18.0418 13.5661C18.0161 13.9072 18.1616 14.7203 17.8731 14.9377C17.4466 15.0026 17.6074 14.0585 17.5804 13.8041C17.5597 13.6094 17.5702 13.333 17.7124 13.1875Z" fill="#9B9A9B"/>
<path d="M17.764 15.2539C17.971 15.2865 17.9941 15.3738 18.0711 15.5463C18.0028 15.6935 17.9812 15.7362 17.846 15.8256C17.5036 15.7932 17.4932 15.4372 17.764 15.2539Z" fill="#9B9A9B"/>
<path d="M14.2908 7.04183C14.4783 7.01148 14.7302 7.03555 14.9185 7.05297C17.1356 7.25797 18.7103 9.33817 18.4844 11.5193C17.93 11.2997 18.113 11.2562 18.0497 10.6616C17.8577 8.85772 16.2931 7.39797 14.4612 7.43446C13.5198 7.46188 12.6259 7.85434 11.9687 8.5289C11.472 9.0475 11.0744 9.81592 10.9891 10.5335C10.958 10.7956 10.9661 11.0774 10.9723 11.3422C11.0108 12.2373 11.3946 13.0826 12.0432 13.7006C12.6548 14.2945 13.4602 14.6476 14.3114 14.6952C14.5081 14.7063 14.7922 14.6857 14.9973 14.6809L15.0085 14.7038C14.9832 14.8368 14.8512 15.0272 14.7729 15.1416C13.6859 15.1056 12.7929 14.9058 11.9522 14.1755C9.2103 11.7933 10.6307 7.31404 14.2908 7.04183Z" fill="#9B9A9B"/>
<path d="M7.54233 5.79787C7.90493 5.78495 10.7733 5.76508 10.9389 5.83661C11.0297 5.9177 11.0544 6.06946 10.9875 6.17153C10.9252 6.22891 10.8417 6.23174 10.756 6.24569C10.3799 6.26104 7.54146 6.26137 7.40381 6.19661C7.35464 6.17312 7.31854 6.1289 7.3054 6.076C7.25913 5.88817 7.39908 5.82969 7.54233 5.79787Z" fill="#9B9A9B"/>
<path d="M14.9821 9.01562C15.4476 9.05027 15.1275 9.64075 15.0322 9.91162C14.8952 10.2997 14.7562 10.687 14.6151 11.0736C14.5124 11.3588 14.1079 12.6362 13.9364 12.7642C13.539 12.7129 13.6573 12.4207 13.785 12.1554C14.0388 11.6278 14.6869 9.29245 14.9821 9.01562Z" fill="#9B9A9B"/>
<path d="M5.86177 9.50037C6.18924 9.49085 8.4431 9.45476 8.57974 9.53782C8.6123 9.5576 8.63651 9.60638 8.64549 9.64322C8.66161 9.70948 8.65835 9.81853 8.61682 9.8756C8.56894 9.94141 8.47008 9.94716 8.39642 9.95566L6.72464 9.96028C6.42204 9.96087 6.12546 9.96865 5.81857 9.95044C5.60653 9.93783 5.41718 9.80986 5.57862 9.5824C5.63058 9.50918 5.77596 9.50688 5.86177 9.50037Z" fill="#9B9A9B"/>
<path d="M6.79376 11.8155C6.52359 11.7986 6.24874 11.8154 5.97797 11.812C5.73764 11.8089 5.1837 11.8959 5.17383 11.5333C5.20052 11.4771 5.27283 11.4197 5.31443 11.4141C5.71179 11.3607 8.0888 11.3522 8.3093 11.4162C8.41095 11.4893 8.45906 11.599 8.40152 11.7174C8.23955 11.8792 7.33861 11.7955 7.04581 11.8174C6.97008 11.8129 6.87152 11.8155 6.79376 11.8155Z" fill="#9B9A9B"/>
<path d="M6.48678 7.62503C6.8266 7.61134 8.7968 7.58652 8.97272 7.65685C9.02637 7.6783 9.07486 7.71423 9.09622 7.76956C9.12472 7.84346 9.11302 7.93478 9.07986 8.00462C9.02569 8.06935 8.93825 8.08006 8.85387 8.10118C8.44601 8.08133 6.42542 8.15839 6.24933 8.03394C6.22137 8.01418 6.18938 7.97467 6.18307 7.9404C6.16918 7.86484 6.17867 7.77793 6.22751 7.71538C6.29117 7.63393 6.39258 7.63304 6.48678 7.62503Z" fill="#9B9A9B"/>
<path d="M15.7442 9.91406C16.0461 9.98529 16.8754 10.5749 17.1518 10.7701C17.4881 11.0077 16.1195 11.7028 15.9285 11.8074C15.862 11.8449 15.8366 11.8647 15.7584 11.8679C15.6718 11.8352 15.6558 11.8313 15.5955 11.7613C15.5296 11.5071 15.8942 11.3477 16.0771 11.2363C16.2566 11.127 16.4739 10.9879 16.6661 10.9088C16.3114 10.6809 15.9138 10.4805 15.5943 10.2121C15.4902 10.1246 15.6827 9.96084 15.7442 9.91406Z" fill="#9B9A9B"/>
<path d="M13.1225 9.93814C13.2165 9.9358 13.2313 9.93751 13.2977 9.98532C13.444 10.2507 13.1135 10.4103 12.9191 10.525C12.7051 10.6513 12.4983 10.7754 12.2893 10.9099C12.5328 11.0279 13.3702 11.4649 13.3557 11.7438C13.3044 11.8703 13.2068 11.8936 13.0928 11.8447C12.8242 11.7169 11.8769 11.1968 11.7657 10.9608C11.7422 10.9109 11.7367 10.8787 11.7576 10.8261C11.8166 10.6772 12.9157 10.0207 13.1225 9.93814Z" fill="#9B9A9B"/>
<path d="M4.41502 13.2249C4.72838 13.2077 6.01299 13.1642 6.24856 13.2862C6.30889 13.3174 6.36305 13.3652 6.38056 13.4334C6.3972 13.4983 6.3781 13.5545 6.34313 13.6086C6.27732 13.6652 6.20119 13.6714 6.11536 13.6882C5.82617 13.6949 4.42784 13.7159 4.23959 13.6417C4.0204 13.4607 4.19485 13.2849 4.41502 13.2249Z" fill="#9B9A9B"/>
<path d="M7.30809 13.2263C7.58815 13.2074 9.10804 13.0669 8.85539 13.5937C8.79314 13.66 8.77659 13.6605 8.68863 13.677C8.3017 13.717 7.85531 13.6761 7.46517 13.6978C7.08379 13.719 6.93255 13.3538 7.30809 13.2263Z" fill="#9B9A9B"/>
<path d="M5.69505 5.79629C5.89577 5.7921 6.51726 5.7066 6.57661 5.9368C6.62955 6.14219 6.51094 6.2155 6.34158 6.25185C6.13099 6.25358 5.54494 6.31157 5.46829 6.07311C5.46651 5.90788 5.53741 5.82787 5.69505 5.79629Z" fill="#9B9A9B"/>
<path d="M4.89197 7.63819C4.99526 7.63226 5.17207 7.61543 5.2661 7.6504C5.55331 7.75722 5.55902 7.98061 5.28302 8.09941C4.94046 8.1468 4.56577 8.0189 4.89197 7.63819Z" fill="#9B9A9B"/>
<path d="M4.424 9.50065C4.60325 9.49607 4.90358 9.50723 4.78032 9.8275C4.74404 9.92179 4.62018 9.94926 4.52397 9.97373C3.96505 9.93928 3.97239 9.50029 4.424 9.50065Z" fill="#9B9A9B"/>
<path d="M3.90158 11.3915C4.07551 11.3828 4.33476 11.3527 4.47374 11.4949C4.57689 11.6005 4.45619 11.739 4.35859 11.8029C4.09131 11.8199 3.48784 11.7802 3.90158 11.3915Z" fill="#9B9A9B"/>
<path d="M6.79346 11.8133C6.87122 11.8133 6.96978 11.8106 7.0455 11.8151C6.90765 11.8625 6.90875 11.8667 6.79346 11.8133Z" fill="#FBFAFD" fill-opacity="0.0117647"/>
</g>
<defs>
<clipPath id="clip0_26323_3726">
<rect width="24" height="24" fill="white"/>
</clipPath>
</defs>
</svg>
